<svg xmlns="http://www.w3.org/2000/svg" width="512" height="512" viewBox="60 40 392 432">
  <g id="_512x512" data-name="512x512" transform="translate(7771 -118)">
    <rect id="Прямоугольник_11503" data-name="Прямоугольник 11503" width="512" height="512" transform="translate(-7771 118)" fill="none"/>
    <g id="Group_786" data-name="Group 786" transform="translate(-7733.984 162.659)">
      <path id="Path_1-3" data-name="Path 1-3" d="M1233.961,4633.384a45.234,45.234,0,0,0,5.456-5.146,129.3,129.3,0,0,1,57.341-47.884,13.988,13.988,0,0,0,6.625-6.184,130.853,130.853,0,0,1,53.913-61.7c.717-.466,1.181-1.389,3.355-4.019-10.723-1.355-20.017-3.092-29.378-3.644-38.819-2.4-79.288-44.254-71.781-94.787a16.685,16.685,0,0,1,15.875-15.744,84.762,84.762,0,0,1,94.387,62.539c3.434,12.519,1.907,26.371,2.862,39.608a54.637,54.637,0,0,0,1.507,7.817,455.141,455.141,0,0,1,51.788.332c41.375,4.924,80.172,42.667,87.424,83.665.6,3.4-2.229,7.412-3.466,11.13-2.855-2.682-7.23-4.864-8.326-8.131-11.985-35.766-33.2-62.732-71.176-71.824a198.517,198.517,0,0,0-42.108-1.788c-6.6-.1-7.923,4.089-8.2,10.061-.717,16.046-1.973,32.059-3.519,48.026-.823,8.513,4.656,9.883,11.891,11.647,4.251-10.336,8.277-20.814,12.872-31.02,2.317-5.155,4-13.863,11.495-11.086,8.133,3.018,2.326,10.535.713,15.559-3.251,10.159-7.861,19.9-11.378,30.033-.787,2.231.465,5.171.777,7.788,2.516-.686,5.722-.607,7.438-2.131,8.444-7.628,16.338-15.878,24.762-23.521,3.645-3.318,7.921-9.8,13.02-4.015,1.692,1.933-1.158,9.829-3.983,13.4-6.437,8.129-14.44,15.051-21.278,22.919a31.024,31.024,0,0,0-3.805,9.562,33.266,33.266,0,0,0,11.105.6c9.909-3.032,19.518-7.046,29.317-10.589a14.411,14.411,0,0,1,6.325-1.538,39.619,39.619,0,0,1,8.057,3.117c-1.354,2.474-2.106,5.91-4.194,7.22a120.474,120.474,0,0,1-15.33,7.255c-5.474,2.432-11.136,4.488-16.4,7.3a30.881,30.881,0,0,0-6.275,6.083c2.617,2.391,4.918,6.266,7.907,6.9,9.223,1.914,18.719,2.458,28.08,3.761,5.258.727,13.472-.644,12.872,7.237-.658,8.489-8.868,5.973-14.537,5.707-7.812-.3-15.594-1.08-23.776-1.69v42.9c11.522.936,22.11,1.595,32.649,2.705a107.678,107.678,0,0,1,56.969,25.5,15.629,15.629,0,0,1,4.484,20.266,117.1,117.1,0,0,1-67.289,66.818,15.393,15.393,0,0,1-19.339-4.661,114.317,114.317,0,0,1-27.712-73.82c-.171-4.1-.091-8.209-.189-12.336a8.026,8.026,0,0,0-.8-2.115l-38.2-2.02c-.551,8.8-.658,17.573-1.885,26.152-.432,3.051-3.573,5.732-5.522,8.536-2.354-2.87-6.223-5.408-6.76-8.536a131.01,131.01,0,0,1-1.569-24.524c.119-6.258-2.7-10.313-8.134-10.656-2.543-.156-6.257,3.889-7.9,6.861-3.634,6.6-6.067,13.84-9.435,20.591-2.146,4.361-4.634,10.679-10.784,7.229-1.99-1.128-1.859-8.414-.711-12.284,2.4-8.112,6.177-15.818,9.242-23.741,1.472-3.82,5.146-7.61-.469-11.506-5.721-3.985-8.681.3-12.073,3.394-7.013,6.4-13.819,13-20.941,19.25a48.175,48.175,0,0,1-8.023,4.749,8.113,8.113,0,0,1-2.752-11.115,8.409,8.409,0,0,1,2.039-2.265c5.941-6.569,12.236-12.819,18.066-19.462,3.264-3.728,9.3-6.711,4.755-13.423-4.391-6.431-8.908-1.617-13.27-.229-8.994,2.8-17.8,6.264-26.918,8.608-2.526.649-5.838-1.667-8.786-2.651,1.51-2.481,2.431-5.985,4.651-7.3,5.917-3.527,12.4-6.158,18.67-9.1,4.506-2.139,9.037-4.15,13.43-6.155-.977-9.18-4.834-11.6-13.46-10.63a213.516,213.516,0,0,1-39.7.992c-9.758-.727-13.076,3.427-14.393,11.567-7.8,48.49,14.653,91.278,59.258,108.524a139.8,139.8,0,0,1,17.531,6.887c2.635,1.428,3.839,5.473,5.724,8.348-2.862,1.244-5.914,3.836-8.626,3.578a89.952,89.952,0,0,1-46.728-21.087c-36.185-29.2-49.037-66.551-39.6-112.064,2.858-13.874,1.426-12.346-9.245-13.482-16.717-1.747-33.8.6-49.955-7.92a85.024,85.024,0,0,1-46.435-93.818,11.279,11.279,0,0,1,10.726-10.021c56.736-8.665,100.323,28.121,101.244,85.713C1234.023,4622.5,1233.961,4626.526,1233.961,4633.384Zm195.571,50.677a95.72,95.72,0,0,0-95.434-96.011h-1.764c-19.616,0-22.53,2.718-22.316,22.453a96.881,96.881,0,0,0,95.6,96.444C1427.215,4707.583,1429.544,4705.687,1429.532,4684.061Zm32.609,31.226c-4.382,0-7.862.292-11.32-.051-8.933-.951-12.874,3.661-13.5,11.849a101.773,101.773,0,0,0,20.436,70.121,10.986,10.986,0,0,0,9.946,2.976,97,97,0,0,0,54.344-52.444,8.929,8.929,0,0,0-2.559-12.359c-.162-.11-.336-.219-.511-.319A85.946,85.946,0,0,0,1462.14,4715.287Zm-258.4-85.664a40.888,40.888,0,0,0,9.673-.229,7.667,7.667,0,0,0,5.009-4.949c5.528-53.029-36.229-81.632-75.307-79.679a13.566,13.566,0,0,0-9.358,9.1c-3.59,44,33.113,78.994,69.978,75.758ZM1274.4,4408c-11.207,47.658,32.889,91.544,81.557,81.735,7.76-44.823-22.477-88.264-81.567-81.735Zm90,116.045a113.944,113.944,0,0,0-46.667,48.794c14.608,1.3,27.345,2.556,40.11,3.344a6.485,6.485,0,0,0,4.66-3.872,86.11,86.11,0,0,0,1.895-48.266Zm-69.642,72.584a86.618,86.618,0,0,0-42.409,40.531,125.186,125.186,0,0,0,31.689,1.428c13.782-1.428,13.766-2.224,12.7-15.961-.385-5.016.043-10.076-.251-15.118-.2-3.226-1.01-6.475-1.73-10.9Z" transform="translate(-1120.32 -4393.362)" fill="red" stroke="red" stroke-width="0.1"/>
      <path id="Path_2-3" data-name="Path 2-3" d="M1165.68,4428.292c-3.3,2.409-5.551,5.276-7.178,4.954-2.333-.463-4.216-3.228-6.309-5.031,1.87-2.092,3.586-5.58,5.657-5.814C1159.82,4422.178,1162.147,4425.462,1165.68,4428.292Z" transform="translate(-922.408 -4213.485)" fill="red" stroke="red" stroke-width="0.1"/>
      <path id="Path_3-3" data-name="Path 3-3" d="M1162.149,4431.99c-3.605,2.434-6.033,5.23-7.456,4.8-2.333-.736-4.017-3.576-5.957-5.51,1.974-1.96,3.8-5.178,5.978-5.437C1156.492,4425.636,1158.687,4428.965,1162.149,4431.99Z" transform="translate(-943.885 -4192.104)" fill="red" stroke="red" stroke-width="0.1"/>
    </g>
  </g>
</svg>
