<svg xmlns="http://www.w3.org/2000/svg" xmlns:xlink="http://www.w3.org/1999/xlink" width="40" height="40" viewBox="0 0 40 40">
  <defs>
    <clipPath id="clip-path">
      <rect id="Прямоугольник_40390" data-name="Прямоугольник 40390" width="14.944" height="17.197" fill="#3b74ed"/>
    </clipPath>
    <clipPath id="clip-path-2">
      <rect id="Прямоугольник_40390-2" data-name="Прямоугольник 40390" width="11.265" height="13.108" fill="#fff"/>
    </clipPath>
  </defs>
  <g id="icon" transform="translate(-728 -4914)">
    <rect id="Прямоугольник_14305" data-name="Прямоугольник 14305" width="40" height="40" rx="9" transform="translate(728 4914)" fill="#3b74ed"/>
    <circle id="Эллипс_1697" data-name="Эллипс 1697" cx="1" cy="1" r="1" transform="translate(737.5 4926)" fill="#3b74ed"/>
    <circle id="Эллипс_1698" data-name="Эллипс 1698" cx="1" cy="1" r="1" transform="translate(740.5 4926)" fill="#3b74ed"/>
    <path id="Контур_67906" data-name="Контур 67906" d="M15.39,47.47c1.92-1.867.21-5.4-1.668-6.678-2.08-1.42-5.912-1.382-8.338-1.04a5.927,5.927,0,0,0-4.6,2.84c-1.329,2.263-1.156,5.487,2.029,5.695,3.451.225,7.144-.176,10.62,0a3.142,3.142,0,0,0,1.959-.817" transform="translate(741.183 4896.112)" fill="#fff"/>
    <path id="Контур_67907" data-name="Контур 67907" d="M15.231.052a5.082,5.082,0,0,0-4.781,7.4,5.155,5.155,0,0,0,8.783.466,5.074,5.074,0,0,0-4-7.87" transform="translate(734.299 4923.499)" fill="#fff"/>
    <path id="Контур_67908" data-name="Контур 67908" d="M52.777,47.922c.984.957,3.154.962,4.456.808a.9.9,0,0,0,.522-1.607c-.573-.419-2.367-.139-3.142-.214-1.11-.107-.887-1.522-.624-2.277a4.1,4.1,0,0,1,3.144-2.591c.592-.075,1.579.149,2.03-.227a.893.893,0,0,0-.458-1.559,5.931,5.931,0,0,0-5.938,2.789c-.833,1.406-1.3,3.607.01,4.878" transform="translate(681.998 4895.66)" fill="#fff"/>
    <path id="Контур_67909" data-name="Контур 67909" d="M49.826,2.769a3.433,3.433,0,0,1,2.435-.951A.916.916,0,1,0,52.034,0a5.1,5.1,0,0,0-3.513,8.637c.828.832,2.78,1.789,3.957,1.451a.9.9,0,0,0-.046-1.7,12.907,12.907,0,0,1-1.318-.207,3.285,3.285,0,0,1-1.288-5.41" transform="translate(689.891 4923.53)" fill="#fff"/>
    <g id="Сгруппировать_61977" data-name="Сгруппировать 61977" transform="translate(0.817)">
      <g id="Сгруппировать_61975" data-name="Сгруппировать 61975" transform="translate(748.481 4932.748)">
        <g id="Сгруппировать_61974" data-name="Сгруппировать 61974" transform="translate(0)" clip-path="url(#clip-path)">
          <path id="Контур_95936" data-name="Контур 95936" d="M14.942,4.3A17.063,17.063,0,0,1,13.32,11.66a11.337,11.337,0,0,1-5.439,5.434.867.867,0,0,1-.787.015A11.438,11.438,0,0,1,3.71,14.687a12.231,12.231,0,0,1-2.442-3.815A17.292,17.292,0,0,1,.112,6.259,20.245,20.245,0,0,1,0,3.591.933.933,0,0,1,.678,2.586Q3.92,1.321,7.164.059a.833.833,0,0,1,.625,0Q11.043,1.328,14.3,2.594a.919.919,0,0,1,.646.945c.006.255,0,.509,0,.764" transform="translate(0 0)" fill="#3b74ed"/>
        </g>
      </g>
      <g id="Сгруппировать_61976" data-name="Сгруппировать 61976" transform="translate(750.321 4934.793)">
        <g id="Сгруппировать_61974-2" data-name="Сгруппировать 61974" transform="translate(0)" clip-path="url(#clip-path-2)">
          <path id="Контур_95936-2" data-name="Контур 95936" d="M11.264,3.28a13.128,13.128,0,0,1-1.223,5.609,8.594,8.594,0,0,1-4.1,4.142.647.647,0,0,1-.593.011A8.625,8.625,0,0,1,2.8,11.195,9.336,9.336,0,0,1,.956,8.286,13.3,13.3,0,0,1,.085,4.771,15.6,15.6,0,0,1,0,2.737a.711.711,0,0,1,.508-.766L5.4.045a.621.621,0,0,1,.471,0q2.452.964,4.9,1.929a.7.7,0,0,1,.487.72c0,.194,0,.388,0,.582" transform="translate(0 0)" fill="#fff"/>
        </g>
      </g>
      <circle id="Эллипс_2039" data-name="Эллипс 2039" cx="1.75" cy="1.75" r="1.75" transform="translate(754.25 4938.318)" fill="#3b74ed"/>
      <path id="Контур_95937" data-name="Контур 95937" d="M.988-.566a.509.509,0,0,1,.525.49V1.885a.509.509,0,0,1-.525.49.509.509,0,0,1-.525-.49V-.075A.509.509,0,0,1,.988-.566Z" transform="translate(754.965 4941.912)" fill="#3b74ed"/>
    </g>
  </g>
</svg>
