<svg xmlns="http://www.w3.org/2000/svg" width="40" height="40" viewBox="0 0 40 40">
  <g id="realtor" transform="translate(-128 -5299)">
    <rect id="Прямоугольник_9302" data-name="Прямоугольник 9302" width="40" height="40" rx="9" transform="translate(128 5299)" fill="#d92227"/>
    <path id="house" d="M22.491,10.963l-7.919-7.2a1.584,1.584,0,0,0-2.138,0l-7.919,7.2A1.584,1.584,0,0,0,4,12.131v9.117a1.624,1.624,0,0,0,.4,1.089,1.574,1.574,0,0,0,1.188.535h4.752a.792.792,0,0,0,.792-.792V17.328a.792.792,0,0,1,.792-.792h3.168a.792.792,0,0,1,.792.792v4.752a.792.792,0,0,0,.792.792h4.752a1.545,1.545,0,0,0,.752-.188,1.594,1.594,0,0,0,.832-1.4V12.131a1.584,1.584,0,0,0-.515-1.168Z" transform="translate(134.497 5305.889)" fill="#fff"/>
  </g>
</svg>
