<svg xmlns="http://www.w3.org/2000/svg" width="40" height="40" viewBox="0 0 40 40">
  <g id="icon" transform="translate(-128 -5299)">
    <rect id="Прямоугольник_9302" data-name="Прямоугольник 9302" width="40" height="40" rx="9" transform="translate(128 5299)" fill="#e1080b"/>
    <g id="Сгруппировать_62016" data-name="Сгруппировать 62016" transform="translate(-686.534 4523.826)">
      <path id="Контур_67887" data-name="Контур 67887" d="M6.049,19.44H2.95A3.589,3.589,0,0,1,.008,16.485L0,6A3.507,3.507,0,0,1,3.152,2.957l10.586,0L13.89,3c.066.95.96,1.533,1.461,2.269.054,1.129-.488,2.424.6,3.229,1.047.773,2.2-.1,3.227-.432l1.579.667.01,7.4a3.522,3.522,0,0,1-3.1,3.3c-1.6.126-3.352-.115-4.97.02-1.339.9-2.58,2.05-3.912,2.944a1.687,1.687,0,0,1-1.966.169c-1.154-.657-.777-2.035-.772-3.134M15.055,8.871a2.4,2.4,0,0,0-.3-.18L6.478,8.653a.733.733,0,0,0,.051,1.462h8.013a.759.759,0,0,0,.513-1.243m-3.78,4.7a.73.73,0,0,0-.365-1.239H6.38a.717.717,0,0,0,0,1.405l4.535,0a.682.682,0,0,0,.36-.169" transform="translate(823.166 784.499)" fill="#fff"/>
      <path id="Контур_67888" data-name="Контур 67888" d="M19.03.145l1.41,2.2c.726.3,1.737.334,2.435.634a.551.551,0,0,1,.317.806l-1.63,1.952a4.479,4.479,0,0,0-.011.613c.022.6.163,1.292.165,1.884a.558.558,0,0,1-.7.586l-2.393-.938L16.378,8.8a.577.577,0,0,1-.8-.4l.16-2.612-1.6-1.915a.556.556,0,0,1,.277-.908c.734-.261,1.665-.333,2.416-.6L18.251.151A.589.589,0,0,1,19.03.145" transform="translate(824.637 783.029)" fill="#fff"/>
    </g>
  </g>
</svg>
