<svg width="18" height="25" viewBox="0 0 18 25" fill="none" xmlns="http://www.w3.org/2000/svg">
    <path d="M9.243.104a6.004 6.004 0 0 1 5.994 5.994v2.79a2.736 2.736 0 0 1 1.833.798c.514.513.801 1.21.801 1.936v8.166l-.006.253a5.118 5.118 0 0 1-5.101 4.856H5.21a5.118 5.118 0 0 1-5.107-5.109v-8.166c0-.726.287-1.423.8-1.936a2.736 2.736 0 0 1 1.834-.797v-2.79A6.004 6.004 0 0 1 8.732.103h.51zM2.84 10.847a.775.775 0 0 0-.775.775v8.166a3.146 3.146 0 0 0 3.145 3.146h7.553a3.147 3.147 0 0 0 3.145-3.146v-8.166a.775.775 0 0 0-.775-.775H2.841zm5.892-8.781A4.034 4.034 0 0 0 4.7 6.098v2.787h8.575V6.098a4.033 4.033 0 0 0-4.033-4.032h-.509z" fill="red" stroke="red" stroke-width=".2"/>
</svg>
