<svg xmlns="http://www.w3.org/2000/svg" xmlns:xlink="http://www.w3.org/1999/xlink" width="1932.216" height="605.282" viewBox="0 0 1932.216 605.282">
  <defs>
    <linearGradient id="linear-gradient" x1="-56.877" y1="-64.143" x2="-56.993" y2="-64.143" gradientUnits="objectBoundingBox">
      <stop offset="0" stop-color="#f7f8ff"/>
      <stop offset="1" stop-color="#f3f3fa"/>
    </linearGradient>
    <linearGradient id="linear-gradient-2" x1="-55.109" y1="-63.562" x2="-55.225" y2="-63.562" xlink:href="#linear-gradient"/>
    <clipPath id="clip-path">
      <path id="Path_15442" data-name="Path 15442" d="M-632.668,1345.546a10.54,10.54,0,0,1-13.71,5.858,10.542,10.542,0,0,1-5.858-13.71,38.537,38.537,0,0,0,9.045,5.426A41.715,41.715,0,0,0-632.668,1345.546Z" transform="translate(617.707 1628.543) rotate(172)"/>
    </clipPath>
  </defs>
  <g id="img_404" transform="translate(2.216 -125.112)">
    <rect id="Rectangle_1178" data-name="Rectangle 1178" width="1930" height="1" transform="translate(0 469)" fill="#211758" opacity="0.05"/>
    <rect id="Rectangle_1178-2" data-name="Rectangle 1178" width="1930" height="1" transform="translate(0 469)" fill="#211758" opacity="0.05"/>
    <g id="Group_6821" data-name="Group 6821" transform="translate(-87.471 39.198)">
      <path id="Path_15508" data-name="Path 15508" d="M-716.138,1384.329c-34.476,11.364-1.552,41.7,86.769,49.624s138.419-15.014,137.9-45.453S-681.664,1372.965-716.138,1384.329Z" transform="translate(1697.935 -1055.729)" fill="#111" opacity="0.3" style="isolation: isolate"/>
      <g id="Path_14171" data-name="Path 14171" transform="translate(1023.595 222.132)">
        <path id="Path_15516" data-name="Path 15516" d="M-630.246,1350.785a49.315,49.315,0,0,0-10.663,4.146c-3.583,1.975-5.845,4.1-6.723,6.318a13.454,13.454,0,0,0-.78,2.911l-.162,1.025.708.756a18.5,18.5,0,0,0,4.812,3.577c4.657,2.543,14.429,1.652,21.537-.253,4-1.071,11.059-3.5,13.338-7.678l0-.006,0,0a13.627,13.627,0,0,0,1.818-5.515l.055-.933-.651-.672a23.8,23.8,0,0,0-5.8-4.064C-617.648,1347.719-627.38,1350.017-630.246,1350.785Z" transform="translate(650.565 -1347.01)" fill="red"/>
        <path id="Path_15517" data-name="Path 15517" d="M-621.053,1368.335c-7.469,2-16.217,2.49-19.974.438a16.366,16.366,0,0,1-4.272-3.157,11.5,11.5,0,0,1,.659-2.46c2.724-6.877,25.411-13.306,31.89-9.774a22.506,22.506,0,0,1,5.288,3.676,11.714,11.714,0,0,1-1.569,4.635c-1.516,2.781-6.409,5.139-12.022,6.642m1.1,4.108c5.29-1.418,12.128-4.081,14.654-8.713l.011-.021a15.648,15.648,0,0,0,2.069-6.4,4.253,4.253,0,0,0-1.189-3.213,25.727,25.727,0,0,0-6.3-4.448c-5.443-2.968-15.15-.847-19.071.2a51.423,51.423,0,0,0-11.137,4.337c-4.023,2.218-6.6,4.7-7.672,7.386a15.663,15.663,0,0,0-.908,3.373,4.256,4.256,0,0,0,1.093,3.566,20.632,20.632,0,0,0,5.341,3.989c2.486,1.356,6.109,1.969,10.769,1.818A56.16,56.16,0,0,0-619.951,1372.443Z" transform="translate(649.55 -1348.135)" fill="#101010"/>
      </g>
      <g id="Path_14172" data-name="Path 14172" transform="matrix(0.438, 0.899, -0.899, 0.438, 1026.496, 204.403)">
        <path id="Path_15518" data-name="Path 15518" d="M22.477.025c-1.6-.168-3.651.5-6.455,2.105A59.585,59.585,0,0,0,8.769,7.178l-.006,0-.007,0A27.321,27.321,0,0,0,1.27,16.211c-1.7,3.591-1.692,6.776.03,8.973l.011.01.011.013c1.505,1.862,4.476,2.532,6.7,2.766,5.213.546,12.638-.626,17.469-4.478l.006-.006,0,0a8.772,8.772,0,0,0,3.544-7.321,21.444,21.444,0,0,0-1.784-6.842,18.759,18.759,0,0,1-1.548-5.6A3.523,3.523,0,0,0,22.477.025Z" transform="translate(0 0)" fill="#ff3400" stroke="#111" stroke-linecap="round" stroke-linejoin="round" stroke-width="2"/>
      </g>
      <g id="Path_14174" data-name="Path 14174" transform="matrix(0.602, 0.799, -0.799, 0.602, 977.462, 101.576)">
        <path id="Path_15519" data-name="Path 15519" d="M113.075,47.1a27.43,27.43,0,0,1-5.832,11.548,40.164,40.164,0,0,1-10.691,8.964,42.7,42.7,0,0,1-14.648,5.3,34.071,34.071,0,0,1-15.717-1C53.973,68.09,44.035,63.91,35.808,59.145A70.488,70.488,0,0,1,17.6,44.575C8.675,34.338,5.37,23.3,1.873,11.61q-.3-1.014-.61-2.037C.146,5.847-.192,3.768.1,2.4A2.906,2.906,0,0,1,1.975.162c2.177-.745,4.35,1.1,9.109,5.128C18.751,11.786,31.583,22.66,44.2,20c16.642-3.545,29.026-5.533,39.306-4.489,11.724,1.193,20.181,6.33,26.606,16.172A19.98,19.98,0,0,1,113.075,47.1Z" transform="translate(0)" fill="#ff3400" stroke="#111" stroke-linecap="round" stroke-linejoin="round" stroke-width="2"/>
      </g>
      <g id="Path_14175" data-name="Path 14175" transform="matrix(0.602, 0.799, -0.799, 0.602, 977.122, 101.247)">
        <path id="Path_15520" data-name="Path 15520" d="M113.56,46.968c-1.269,5.971-5.175,11.874-10.995,16.623l-5.384,4.393,2-6.653c.128-.425.24-.859.332-1.288A15.822,15.822,0,0,0,98.455,50.3c-4.2-9.632-10.612-15.173-20.776-17.965-9.4-2.583-21.6-2.668-38.224-1.969C24.593,31.036,12.917,17.253,5.941,9.016A49.383,49.383,0,0,0,1.446,4.079L0,2.886,1,1.3A2.745,2.745,0,0,1,2.932.035C5-.284,7.2,1.579,11.584,5.285,19.247,11.761,32.069,22.6,44.671,19.931,61.318,16.386,73.7,14.4,83.981,15.442c11.722,1.191,20.176,6.328,26.6,16.166A19.8,19.8,0,0,1,113.56,46.968Z" transform="translate(0 0)" fill="red" stroke="#111" stroke-linecap="round" stroke-linejoin="round" stroke-width="2"/>
      </g>
      <g id="Group_6108" data-name="Group 6108" transform="matrix(0.998, 0.07, -0.07, 0.998, 1096.505, 135.02)">
        <g id="Path_14165" data-name="Path 14165" transform="translate(0 0)" fill="#111">
          <path d="M 174.5012969970703 60.4552116394043 C 161.8057098388672 48.08364486694336 147.7932586669922 36.97575378417969 132.8531951904297 27.44012451171875 C 117.9560928344727 17.81940841674805 101.7396774291992 10.53558444976807 84.65251922607422 5.789589405059814 L 81.43849945068359 5.028124809265137 C 81.25576019287109 4.986255168914795 81.07180023193359 4.943494319915771 80.88936614990234 4.901103019714355 C 79.99373626708984 4.69295072555542 79.14775848388672 4.496320247650146 78.25366973876953 4.357776641845703 L 78.24667358398438 4.356689929962158 L 78.23971557617188 4.355407238006592 L 75.02390289306641 3.763437986373901 L 71.72276306152344 3.256646394729614 L 70.12130737304688 3.003084421157837 L 68.52991485595703 2.835174083709717 C 67.96533966064453 2.791348218917847 67.39675140380859 2.725789070129395 66.84682464599609 2.662363767623901 C 66.31796264648438 2.601390361785889 65.77125549316406 2.53833794593811 65.23715972900391 2.495993375778198 C 64.50047302246094 2.46755313873291 63.7533073425293 2.429105758666992 63.03060531616211 2.391928911209106 C 61.59330368041992 2.317994117736816 60.10704040527344 2.241537809371948 58.65173721313477 2.241537809371948 L 58.64597702026367 2.241537809371948 L 58.64023590087891 2.241407155990601 C 58.16593170166016 2.230494260787964 57.68489074707031 2.224950790405273 57.21047592163086 2.224950790405273 C 48.93666458129883 2.224950790405273 40.86977767944336 3.84367036819458 33.23367309570312 7.036226272583008 C 29.28679084777832 8.737447738647461 25.5882511138916 10.96863746643066 22.24073791503906 13.66779899597168 C 20.59636878967285 15.00814628601074 19.04684638977051 16.50121116638184 17.63723754882812 18.1038646697998 C 16.19858169555664 19.71371269226074 14.84161281585693 21.4093017578125 13.60132503509521 23.14664268493652 C 8.73707103729248 30.39827728271484 5.28180456161499 38.38705062866211 3.330824613571167 46.89212417602539 L 3.330215930938721 46.89475631713867 L 3.329585552215576 46.89738464355469 C 3.122194290161133 47.75875473022461 2.359259366989136 48.36038589477539 1.474281191825867 48.36040878295898 C 1.321911573410034 48.36040878295898 1.169041991233826 48.34197235107422 1.019889831542969 48.30562591552734 L 1.013324618339539 48.30401611328125 L 1.006781101226807 48.3022346496582 L 0.9302376508712769 48.28136444091797 L 0.9241724610328674 48.27971267700195 L 0.9181724190711975 48.27790832519531 C -0.09761016815900803 47.97336196899414 -0.6951754093170166 46.92784118652344 -0.4422405958175659 45.89768981933594 L -0.3487406075000763 45.51692962646484 L -0.3337584733963013 45.51692962646484 C 1.935339093208313 36.79465866088867 5.663415431976318 28.59467124938965 10.75052070617676 21.1379508972168 L 10.75408554077148 21.13273429870605 L 10.75778102874756 21.12760353088379 C 12.08707141876221 19.28120994567871 13.55531597137451 17.4962215423584 15.12182140350342 15.82207775115967 C 16.68136405944824 14.12101078033447 18.3840274810791 12.5340576171875 20.18256378173828 11.10531997680664 C 23.78347587585449 8.259016036987305 27.75795555114746 5.924342155456543 31.99656295776367 4.16542911529541 L 31.99947738647461 4.164211750030518 L 32.00238800048828 4.163059234619141 C 35.83310699462891 2.629407167434692 39.82962799072266 1.455994248390198 43.88093185424805 0.6754072904586792 C 47.92893218994141 -0.1045275181531906 52.07154083251953 -0.5000057816505432 56.19369506835938 -0.5000057816505432 C 57.01259231567383 -0.5000057816505432 57.84266662597656 -0.4842606484889984 58.66109085083008 -0.4531987011432648 C 60.93388748168945 -0.4527459442615509 63.1505126953125 -0.2840472459793091 65.29441070556641 -0.1208753511309624 L 65.38967132568359 -0.1136362180113792 C 65.95693206787109 -0.06976665556430817 66.52769470214844 -0.003940565045922995 67.07965087890625 0.05971160903573036 C 67.61180114746094 0.1210594326257706 68.16206359863281 0.1845159530639648 68.69932556152344 0.2268637865781784 L 68.70454406738281 0.2272768318653107 L 68.70973968505859 0.2277985662221909 L 70.41084289550781 0.3977116048336029 L 70.42314910888672 0.3989289999008179 L 70.43538665771484 0.4007768332958221 L 72.136474609375 0.6561464071273804 L 75.44654083251953 1.164581179618835 L 75.45886993408203 1.166472434997559 L 75.47106170654297 1.168972492218018 L 78.77938842773438 1.847363829612732 L 78.78536987304688 1.848581194877625 L 78.79130554199219 1.849950790405273 L 82.09991455078125 2.612885475158691 L 82.10758209228516 2.614668130874634 L 82.11519622802734 2.616668224334717 L 85.3385009765625 3.467689752578735 L 85.34495544433594 3.469385623931885 L 85.35137176513672 3.471276760101318 C 102.5682601928711 8.512580871582031 118.8788452148438 16.09242820739746 133.8300170898438 26.00032043457031 C 148.7229766845703 35.77062606811523 162.6440582275391 47.12421035766602 175.2046508789062 59.74440765380859 L 174.5012969970703 60.4552116394043 Z" stroke="none"/>
          <path d="M 174.8502655029297 60.09712219238281 C 162.2861633300781 47.47339248657227 148.4464569091797 36.18721008300781 133.5538177490234 26.4171199798584 C 118.6591796875 16.54668807983398 102.3614730834961 8.973007202148438 85.21086120605469 3.951120615005493 L 81.98756408691406 3.100120782852173 L 78.678955078125 2.33716607093811 L 75.37063598632812 1.658779740333557 L 72.06224822998047 1.150597929954529 L 70.36116027832031 0.8952343463897705 L 68.66004180908203 0.7253252267837524 C 67.55647277832031 0.6383252739906311 66.45522308349609 0.4702570736408234 65.35172271728516 0.3849161565303802 C 63.14661026000977 0.2171434313058853 60.94172668457031 0.04680251702666283 58.65172576904297 0.04680251702666283 C 49.60678863525391 -0.2976975739002228 40.59136199951172 1.263007164001465 32.18822479248047 4.62723445892334 C 27.99313354492188 6.368120670318604 24.05740737915039 8.679802894592285 20.49356651306152 11.49682521820068 C 18.70547485351562 12.91728019714355 17.03222465515137 14.47796154022217 15.48838424682617 16.1621208190918 C 13.93647480010986 17.82055282592773 12.49045181274414 19.57671165466309 11.16356563568115 21.41973495483398 C 6.05415678024292 28.90914344787598 2.292793035507202 37.23323440551758 0.05379299074411392 46.01693725585938 L 0.04333844408392906 46.01693725585938 C -0.1462070047855377 46.78896331787109 0.302815705537796 47.57143783569336 1.061747550964355 47.7989616394043 L 1.138293027877808 47.81984710693359 C 1.897384285926819 48.0048713684082 2.660724639892578 47.53934860229492 2.843474864959717 46.78034973144531 C 4.80186128616333 38.24307632446289 8.310247421264648 30.13564300537109 13.18999767303467 22.86227989196777 C 14.45288372039795 21.0927791595459 15.81388378143311 19.39380264282227 17.26179313659668 17.77366638183594 C 18.6906566619873 16.14912033081055 20.2493839263916 14.64589309692383 21.92688369750977 13.27855205535889 C 25.30986022949219 10.55080223083496 29.04549789428711 8.296893119812012 33.0364990234375 6.57673454284668 C 41.14197540283203 3.187258005142212 49.86804580688477 1.539416193962097 58.65172576904297 1.741529822349548 C 60.85663223266602 1.741529822349548 63.06158828735352 1.911893367767334 65.26656341552734 1.996757030487061 C 66.37020111083984 2.083757162094116 67.47151947021484 2.251825332641602 68.57508850097656 2.33716607093811 L 70.18669891357422 2.507211685180664 L 71.79863739013672 2.762438774108887 L 75.10692596435547 3.270302534103394 L 78.33022308349609 3.86366605758667 C 79.42752075195312 4.033711433410645 80.45038604736328 4.288643360137939 81.55374908447266 4.541597843170166 L 84.77719879150391 5.305302619934082 C 101.897834777832 10.05957508087158 118.1980438232422 17.38046073913574 133.1222076416016 27.01864433288574 C 148.1231384277344 36.59312057495117 162.1055145263672 47.67764282226562 174.8502655029297 60.09712219238281 M 174.1523590087891 60.81330108642578 C 161.4811096191406 48.46546173095703 147.4955596923828 37.3788948059082 132.5841827392578 27.86157608032227 L 132.5796813964844 27.85868835449219 C 117.7300262451172 18.26863479614258 101.5629730224609 11.00645446777344 84.52798461914062 6.273947715759277 L 81.32460021972656 5.514997482299805 C 81.13980102539062 5.472636699676514 80.95722198486328 5.430187702178955 80.77617645263672 5.388120651245117 C 79.88990783691406 5.182143211364746 79.05274963378906 4.987575054168701 78.17708587646484 4.851870536804199 L 78.14917755126953 4.847143650054932 L 74.94072723388672 4.256512641906738 L 71.64690399169922 3.750870704650879 L 70.05575561523438 3.498944044113159 L 68.48393249511719 3.333096742630005 C 67.91252899169922 3.288563013076782 67.341796875 3.222758531570435 66.78968048095703 3.159075260162354 C 66.26842498779297 3.098980665206909 65.72962188720703 3.03684663772583 65.20741271972656 2.995208501815796 C 64.47084808349609 2.966697454452515 63.72560882568359 2.928341627120972 63.00470352172852 2.891257047653198 C 61.57376861572266 2.817643404006958 60.09411239624023 2.741529703140259 58.65172576904297 2.741529703140259 L 58.62874603271484 2.741256952285767 C 58.15824890136719 2.730438947677612 57.68111038208008 2.724961519241333 57.21056747436523 2.724961519241333 C 49.00374984741211 2.724961519241333 41.00202178955078 4.330533504486084 33.42775344848633 7.497043132781982 C 29.52531623840332 9.179489135742188 25.86823272705078 11.38570594787598 22.55792808532715 14.05429744720459 C 20.93325996398926 15.37865543365479 19.4039478302002 16.85229682922363 18.01268005371094 18.43409729003906 L 18.0074291229248 18.44002914428711 C 16.58512306213379 20.0314884185791 15.24108505249023 21.71073532104492 14.01249408721924 23.43124961853027 C 9.184730529785156 30.63021087646484 5.754864692687988 38.5611457824707 3.818156719207764 47.00394058227539 L 3.815679311752319 47.01443862915039 C 3.55399751663208 48.10128021240234 2.591179370880127 48.86037063598633 1.474292993545532 48.86041641235352 C 1.282065749168396 48.86041641235352 1.089361190795898 48.83718872070312 0.9014748334884644 48.7913932800293 L 0.7745884656906128 48.7568473815918 C -0.4965251982212067 48.37577819824219 -1.244297862052917 47.06753158569336 -0.92782062292099 45.77850723266602 L -0.7408433556556702 45.01693725585938 L -0.7193553447723389 45.01693725585938 C 1.572929978370667 36.37868499755859 5.290754318237305 28.25371932983398 10.33749771118164 20.85616683959961 L 10.35202026367188 20.8354606628418 C 11.69303226470947 18.97280502319336 13.17406368255615 17.17210578918457 14.75413417816162 15.48322200775146 C 16.3311653137207 13.76318645477295 18.05288124084473 12.15857887268066 19.87154388427734 10.71382522583008 C 23.50938415527344 7.838302612304688 27.52372550964355 5.480234146118164 31.80492973327637 3.703598022460938 L 31.81654357910156 3.698870658874512 C 35.67670059204102 2.153438806533813 39.70392990112305 0.9710298180580139 43.78633880615234 0.1844388842582703 C 47.86542892456055 -0.6014929413795471 52.03985977172852 -0.9999929070472717 56.19367980957031 -0.9999929070472717 C 57.01583480834961 -0.9999929070472717 57.84909439086914 -0.9842609167098999 58.6707763671875 -0.953191876411438 C 60.95911407470703 -0.9522637724876404 63.18212509155273 -0.7830877304077148 65.33226776123047 -0.6194474697113037 L 65.42758941650391 -0.6121974587440491 C 66.0048828125 -0.5675610899925232 66.58042907714844 -0.5011974573135376 67.13703918457031 -0.4369929432868958 C 67.66474914550781 -0.3761520385742188 68.21040344238281 -0.313220202922821 68.73863220214844 -0.2715838551521301 L 68.75942993164062 -0.269720196723938 L 70.50961303710938 -0.09367475658655167 L 72.21070098876953 0.1616888791322708 L 75.57151794433594 0.6791661381721497 L 78.90365600585938 1.362734317779541 L 82.24283599853516 2.133257150650024 L 85.49188232421875 2.991416215896606 C 102.7569732666016 8.046825408935547 119.1132049560547 15.64791584014893 134.1062316894531 25.58355331420898 C 149.0260467529297 35.3714599609375 162.9740905761719 46.74702835083008 175.5590362548828 59.39168930053711 L 174.1523590087891 60.81330108642578 Z" stroke="none" fill="#111"/>
        </g>
      </g>
      <g id="Group_6109" data-name="Group 6109" transform="translate(924.797 90.802)">
        <g id="Path_14166" data-name="Path 14166" transform="translate(656.756 -1286.369)" fill="#111">
          <path d="M -500.9607849121094 1373.511108398438 C -501.134521484375 1373.511108398438 -501.30810546875 1373.487426757812 -501.4766845703125 1373.440673828125 L -501.4828796386719 1373.43896484375 L -501.4890747070312 1373.43701171875 L -501.552978515625 1373.41748046875 L -501.5790405273438 1373.409545898438 L -501.6041259765625 1373.398803710938 C -502.5755920410156 1372.981811523438 -503.0858154296875 1371.900756835938 -502.7909545898438 1370.884399414062 L -502.7129516601562 1370.615478515625 L -502.6991577148438 1370.611694335938 C -500.1294860839844 1362.398315429688 -499.02490234375 1353.873657226562 -499.4163818359375 1345.270385742188 C -499.573974609375 1343.12255859375 -499.8588256835938 1340.964477539062 -500.2630615234375 1338.85595703125 C -500.6760559082031 1336.758422851562 -501.2603454589844 1334.682006835938 -501.9992370605469 1332.686767578125 C -503.4700927734375 1328.632080078125 -505.5075378417969 1324.811645507812 -508.0557861328125 1321.328857421875 C -513.3139038085938 1314.339721679688 -519.8169555664062 1308.576538085938 -527.3851318359375 1304.198486328125 L -527.389892578125 1304.195678710938 L -527.39453125 1304.19287109375 C -528.551513671875 1303.4892578125 -529.7476196289062 1302.840698242188 -530.9043579101562 1302.213500976562 C -531.6354370117188 1301.817138671875 -532.3914184570312 1301.4072265625 -533.1256713867188 1300.989624023438 C -534.0477294921875 1300.48486328125 -535.0297241210938 1300.015380859375 -536.0442504882812 1299.59423828125 L -536.0560302734375 1299.58935546875 L -536.0675659179688 1299.583862304688 L -537.5382690429688 1298.883056640625 L -539.0786743164062 1298.275268554688 L -539.0818481445312 1298.274047851562 L -539.0850219726562 1298.272705078125 L -542.1063232421875 1297.032470703125 L -545.1976928710938 1295.895751953125 C -546.2022705078125 1295.535400390625 -547.304931640625 1295.188232421875 -548.3482055664062 1294.863647460938 L -551.5824584960938 1293.919555664062 C -566.7534790039062 1289.76806640625 -582.4158935546875 1287.663330078125 -598.1368408203125 1287.663330078125 C -600.084716796875 1287.663330078125 -602.0594482421875 1287.696166992188 -604.0061645507812 1287.761108398438 C -621.7080688476562 1288.227416992188 -639.4152221679688 1290.57080078125 -656.6392211914062 1294.726196289062 L -656.8787231445312 1293.755249023438 C -639.6227416992188 1289.404052734375 -621.8535766601562 1286.821655273438 -604.06494140625 1286.079711914062 C -601.2182006835938 1285.940185546875 -598.325927734375 1285.869384765625 -595.4721069335938 1285.869384765625 C -580.4451293945312 1285.869384765625 -565.4542236328125 1287.80126953125 -550.9158325195312 1291.611083984375 L -550.9091186523438 1291.61279296875 L -550.9024658203125 1291.61474609375 L -547.6669311523438 1292.559326171875 C -546.5717163085938 1292.857666015625 -545.4893188476562 1293.21240234375 -544.4497680664062 1293.613525390625 L -541.2632446289062 1294.73828125 L -541.254638671875 1294.741333007812 L -541.24609375 1294.74462890625 L -538.13330078125 1295.973510742188 L -536.576904296875 1296.588256835938 L -536.5672607421875 1296.592163085938 L -536.5578002929688 1296.596313476562 L -534.988037109375 1297.29296875 C -534.044921875 1297.700073242188 -532.9763793945312 1298.161376953125 -531.9082641601562 1298.709716796875 C -529.9443969726562 1299.692626953125 -527.8684692382812 1300.749267578125 -525.96923828125 1301.908569335938 C -521.9921264648438 1304.10205078125 -518.2310180664062 1306.716552734375 -514.789794921875 1309.679565429688 C -511.3451843261719 1312.6455078125 -508.1990661621094 1315.979858398438 -505.4388427734375 1319.58984375 L -505.4366760253906 1319.592651367188 L -505.4345397949219 1319.595581054688 C -502.6952819824219 1323.285888671875 -500.4825134277344 1327.339965820312 -498.8576049804688 1331.645385742188 C -498.0497436523438 1333.806518554688 -497.403076171875 1336.040893554688 -496.9350280761719 1338.287963867188 C -496.48193359375 1340.506958007812 -496.150146484375 1342.784912109375 -495.9484558105469 1345.060668945312 L -495.9479064941406 1345.06689453125 L -495.9474792480469 1345.073120117188 C -495.3652954101562 1354.234619140625 -496.4281616210938 1363.329467773438 -499.1069030761719 1372.106079101562 C -499.3396911621094 1372.933715820312 -500.1009521484375 1373.511108398438 -500.9607849121094 1373.511108398438 Z" stroke="none"/>
          <path d="M -500.9607849121094 1373.011108398438 C -500.3358764648438 1373.011108398438 -499.7618713378906 1372.597412109375 -499.5867614746094 1371.965454101562 C -496.9332580566406 1363.273559570312 -495.8700866699219 1354.175170898438 -496.4465026855469 1345.104858398438 C -496.6462707519531 1342.8505859375 -496.9716491699219 1340.607788085938 -497.4245300292969 1338.389892578125 C -497.8900451660156 1336.155029296875 -498.5258483886719 1333.960815429688 -499.3254089355469 1331.821899414062 C -500.9327697753906 1327.56298828125 -503.1228942871094 1323.548706054688 -505.8360290527344 1319.8935546875 C -511.3408508300781 1312.693969726562 -518.283203125 1306.717041015625 -526.2203369140625 1302.341064453125 C -528.1214599609375 1301.179931640625 -530.17529296875 1300.13623046875 -532.1336669921875 1299.156005859375 C -533.16064453125 1298.628662109375 -534.175048828125 1298.1884765625 -535.189208984375 1297.750732421875 L -536.7606201171875 1297.053344726562 L -541.4296875 1295.209716796875 L -544.6234130859375 1294.082397460938 C -545.6632080078125 1293.680908203125 -546.72412109375 1293.334228515625 -547.80224609375 1293.040649414062 L -551.0426025390625 1292.0947265625 C -568.3250122070312 1287.56591796875 -586.1986694335938 1285.705810546875 -604.0440673828125 1286.579223632812 C -621.830322265625 1287.321044921875 -639.495361328125 1289.887573242188 -656.7564697265625 1294.240112304688 C -639.4720458984375 1290.070190429688 -621.7962646484375 1287.729614257812 -604.0228271484375 1287.261352539062 C -586.2852172851562 1286.669799804688 -568.5631103515625 1288.754028320312 -551.4466552734375 1293.438354492188 L -548.2039794921875 1294.384887695312 C -547.1112060546875 1294.724853515625 -546.0267333984375 1295.067138671875 -545.025146484375 1295.426513671875 L -541.9249267578125 1296.56640625 L -538.8951416015625 1297.810180664062 L -537.3387451171875 1298.42431640625 L -535.8525390625 1299.132446289062 C -534.83837890625 1299.553466796875 -533.8453369140625 1300.025512695312 -532.882080078125 1300.552978515625 C -530.9940185546875 1301.626831054688 -529.0399169921875 1302.607055664062 -527.134765625 1303.765625 C -519.5482177734375 1308.154418945312 -512.9229736328125 1314.026977539062 -507.6539611816406 1321.03125 C -505.0790710449219 1324.549926757812 -503.0166320800781 1328.415893554688 -501.5303649902344 1332.51318359375 C -500.7776184082031 1334.545776367188 -500.1906433105469 1336.635620117188 -499.7720031738281 1338.761840820312 C -499.3614807128906 1340.903198242188 -499.0765075683594 1343.065795898438 -498.9172058105469 1345.240844726562 C -498.5193786621094 1353.967163085938 -499.6654968261719 1362.695068359375 -502.3041076660156 1371.021850585938 L -502.3107604980469 1371.023681640625 C -502.5359802246094 1371.800048828125 -502.1490783691406 1372.620727539062 -501.4068908691406 1372.939331054688 L -501.3429870605469 1372.958862304688 C -501.2153625488281 1372.994262695312 -501.0870971679688 1373.011108398438 -500.9607849121094 1373.011108398438 M -500.9607849121094 1374.011108398438 C -501.1797485351562 1374.011108398438 -501.3983154296875 1373.981323242188 -501.6104125976562 1373.922485351562 L -501.751220703125 1373.879760742188 L -501.8013610839844 1373.858276367188 C -503.0043640136719 1373.341796875 -503.63623046875 1372.00341796875 -503.2711486816406 1370.7451171875 L -503.1154479980469 1370.208374023438 L -503.0956726074219 1370.202880859375 C -500.6015014648438 1362.127319335938 -499.5318298339844 1353.752563476562 -499.91552734375 1345.300415039062 C -500.07177734375 1343.174194335938 -500.3538818359375 1341.037841796875 -500.7541198730469 1338.950073242188 C -501.1615295410156 1336.881103515625 -501.738525390625 1334.83056640625 -502.4681091308594 1332.860473632812 L -502.4704284667969 1332.854248046875 C -503.9236145019531 1328.848022460938 -505.9379272460938 1325.070556640625 -508.4573364257812 1321.626708984375 C -513.674560546875 1314.692749023438 -520.126708984375 1308.97509765625 -527.635498046875 1304.631225585938 L -527.6543579101562 1304.619995117188 C -528.80078125 1303.9228515625 -529.9913940429688 1303.27734375 -531.142822265625 1302.652954101562 C -531.8749389648438 1302.255981445312 -532.6319580078125 1301.845581054688 -533.3695678710938 1301.426147460938 C -534.27490234375 1300.930786132812 -535.2391967773438 1300.469848632812 -536.2359619140625 1300.056030273438 L -536.2826538085938 1300.03515625 L -537.7376708984375 1299.341918945312 L -539.27490234375 1298.735229492188 L -542.28759765625 1297.49853515625 L -545.3655395507812 1296.366821289062 C -546.3619384765625 1296.009399414062 -547.4564208984375 1295.664794921875 -548.4925537109375 1295.342407226562 L -551.7182006835938 1294.40087890625 C -566.8444213867188 1290.262084960938 -582.4622802734375 1288.163330078125 -598.13671875 1288.163330078125 C -600.0792846679688 1288.163330078125 -602.0484619140625 1288.196166992188 -603.9895629882812 1288.2607421875 L -603.9965209960938 1288.260986328125 C -621.6598510742188 1288.726318359375 -639.3319702148438 1291.065063476562 -656.5219116210938 1295.212158203125 L -657.0009765625 1293.2705078125 C -639.7139282226562 1288.911376953125 -621.912353515625 1286.324096679688 -604.0916748046875 1285.580322265625 C -601.2338256835938 1285.4404296875 -598.3336181640625 1285.369384765625 -595.4721069335938 1285.369384765625 C -580.4024047851562 1285.369384765625 -565.3688354492188 1287.306640625 -550.7891235351562 1291.12744140625 L -550.7623901367188 1291.134765625 L -547.531005859375 1292.078125 C -546.4232177734375 1292.380126953125 -545.3284912109375 1292.73876953125 -544.27685546875 1293.144287109375 L -541.0625 1294.279541015625 L -536.35498046875 1296.139282226562 L -534.7890625 1296.834228515625 C -533.8394775390625 1297.244140625 -532.7637329101562 1297.708618164062 -531.6814575195312 1298.264038085938 C -529.7122192382812 1299.249755859375 -527.6304321289062 1300.309448242188 -525.7182006835938 1301.475952148438 C -521.7144775390625 1303.68505859375 -517.9281616210938 1306.317504882812 -514.4635620117188 1309.300659179688 C -510.9927978515625 1312.289184570312 -507.8227844238281 1315.648803710938 -505.0416259765625 1319.2861328125 L -505.0330505371094 1319.297485351562 C -502.2661743164062 1323.025146484375 -500.0310668945312 1327.1201171875 -498.3898010253906 1331.46875 C -497.572509765625 1333.655151367188 -496.9187622070312 1335.914184570312 -496.445556640625 1338.18603515625 C -495.98828125 1340.42529296875 -495.6537170410156 1342.72216796875 -495.4504089355469 1345.0166015625 L -495.4485168457031 1345.04150390625 C -494.8626403808594 1354.260864257812 -495.93212890625 1363.414306640625 -498.6270446777344 1372.24658203125 C -498.9219055175781 1373.286376953125 -499.8794555664062 1374.011108398438 -500.9607849121094 1374.011108398438 Z" stroke="none" fill="#111"/>
        </g>
      </g>
      <g id="Path_14152" data-name="Path 14152" transform="translate(1142.485 227.193)">
        <path id="Path_15538" data-name="Path 15538" d="M-683.737,1392.358c4.442-1.274,8.437-5.843,12.568-14.377a56.8,56.8,0,0,0,4.4-12.468c1.018-4.825.844-8.58-.517-11.161a6.946,6.946,0,0,0-5.307-3.71,8.672,8.672,0,0,0-3.959.238c-4.659,1.335-10.493,6.617-17.837,16.147-3.859,5.053-5.471,10.11-4.663,14.633a13.314,13.314,0,0,0,6.315,8.945C-689.644,1392.592-686.616,1393.183-683.737,1392.358Z" transform="translate(699.256 -1350.515)" fill="#ff3400" stroke="#111" stroke-linecap="round" stroke-linejoin="round" stroke-width="2"/>
      </g>
      <g id="Path_14154" data-name="Path 14154" transform="translate(1064.11 251.107)">
        <path id="Path_15539" data-name="Path 15539" d="M-659,1430.764h0c6.855,0,14.346-2.141,22.262-6.364,17.623-9.466,29.874-18.113,36.423-25.707,5.312-6.16,6.083-10.589,6.141-14.11a12.226,12.226,0,0,0-3.961-8.847c-5.356-5.431-15.073-8.68-22.281-10.448a130.6,130.6,0,0,0-30.225-3.526c-8.7,0-16.381.91-22.2,2.63a40.98,40.98,0,0,0-12.441,5.743,19.912,19.912,0,0,0-6.613,7.81c-4.378,9.622.857,21.065,5.473,31.16.7,1.538,1.367,2.988,1.992,4.421C-679.578,1424.642-670.546,1430.764-659,1430.764Z" transform="translate(693.545 -1361.762)" fill="red" stroke="#111" stroke-linecap="round" stroke-linejoin="round" stroke-width="2"/>
      </g>
      <g id="Path_14155" data-name="Path 14155" transform="translate(1071.143 268.067)">
        <path id="Path_15540" data-name="Path 15540" d="M-666.059,1422.678c6.872,0,14.378-2.162,22.311-6.424,17.608-9.458,29.853-18.1,36.4-25.689,5.3-6.143,6.077-10.563,6.134-14.078a12.9,12.9,0,0,0-1.522-6.749l-3.991,1.024v.93c-.03,1.943-.1,5.547-5.131,11.371-6.213,7.191-18.044,15.509-35.162,24.72-7.3,3.951-14.125,5.952-20.287,5.952-9.851,0-17.276-5.08-21.475-14.693l-.047-.1-.055-.1a4.047,4.047,0,0,1-.478-1.219l-4.181.772a29.558,29.558,0,0,0,2.107,7.036l.008.021.009.019C-686.573,1416.567-677.566,1422.678-666.059,1422.678Z" transform="translate(693.545 -1369.738)" fill="red" stroke="#111" stroke-linecap="round" stroke-linejoin="round" stroke-width="2"/>
      </g>
      <g id="Path_14156" data-name="Path 14156" transform="translate(1154.747 254.72)">
        <path id="Path_15541" data-name="Path 15541" d="M-702.493,1388.9c3.51.942,8.273.9,14.565-.13,8.571-1.4,18.734-4.873,21.56-10.4a6.926,6.926,0,0,0-.013-6.459c-.984-2.014-2.964-4.549-9.557-6.317a79.407,79.407,0,0,0-16.376-2.1c-6.262-.285-11.282,1.263-14.518,4.478a13.45,13.45,0,0,0-3.778,10.385C-710.39,1383.968-707.66,1387.517-702.493,1388.9Z" transform="translate(710.625 -1363.461)" fill="#ff3400" stroke="#111" stroke-miterlimit="10" stroke-width="2"/>
      </g>
      <path id="Path_14158" data-name="Path 14158" d="M-609.411,1387.222c-2.46,9.868-26.84,66.28-36.714,63.817s-1.565-62.795.917-72.744a18.447,18.447,0,0,1,22.36-13.44,18.444,18.444,0,0,1,13.44,22.36Z" transform="translate(1681.539 -1107.793)" fill="red" stroke="#0a2540" stroke-linecap="round" stroke-width="1.5"/>
      <g id="Path_14160" data-name="Path 14160" transform="translate(1021.013 175.059)">
        <path id="Path_15542" data-name="Path 15542" d="M-621.724,1485.555h0a60.284,60.284,0,0,0,21.686-3.706,42.377,42.377,0,0,0,16.406-11.093,45.721,45.721,0,0,0,10.174-19.47,76.258,76.258,0,0,0,1.573-26.659c-1.826-18.339-4.48-34.294-7.891-47.424-2.917-11.237-6.462-20.676-10.531-28.054a50.542,50.542,0,0,0-11.125-14.272,37.448,37.448,0,0,0-9.258-5.794A31.025,31.025,0,0,0-623.759,1326c-6.6,0-12.934,2.462-18.813,7.319-5.2,4.293-10.03,10.449-14.367,18.3a131.642,131.642,0,0,0-10.236,24.733,186.162,186.162,0,0,0-6.138,27.074c-2.318,15.52-2.788,28.288-1.437,39.032a64.931,64.931,0,0,0,3.468,14.642,43.227,43.227,0,0,0,6.4,11.578c7.589,9.651,19.241,15.06,35.624,16.536C-626.7,1485.439-624.161,1485.555-621.724,1485.555Z" transform="translate(675.501 -1325.996)" fill="#ff3400" stroke="#111" stroke-linecap="round" stroke-linejoin="round" stroke-width="2"/>
      </g>
      <g id="Path_14161" data-name="Path 14161" transform="translate(1022.393 235.725)">
        <path id="Path_15543" data-name="Path 15543" d="M-604.476,1453.419a71.3,71.3,0,0,0,17.082-1.943l1.846-.458-.249-1.886c-2.284-17.28-5.335-32.345-9.069-44.777-3.2-10.661-6.989-19.653-11.254-26.727a52.636,52.636,0,0,0-11.544-13.827,42.308,42.308,0,0,0-9.551-5.852,34.552,34.552,0,0,0-14.5-3.422c-6.725,0-13.213,2.324-19.281,6.911l-.7.525-.125.863c-2.522,17.1-3.007,31.18-1.484,43.034a71.633,71.633,0,0,0,3.859,16.126,47.836,47.836,0,0,0,7.074,12.736c8.411,10.68,21.337,16.672,39.515,18.318C-609.992,1453.291-607.175,1453.419-604.476,1453.419Z" transform="translate(664.164 -1354.528)" fill="red" stroke="#111" stroke-linecap="round" stroke-linejoin="round" stroke-width="2"/>
      </g>
      <ellipse id="Ellipse_528" data-name="Ellipse 528" cx="9.16" cy="9.16" rx="9.16" ry="9.16" transform="translate(1080.662 186.083)" stroke="#111" stroke-miterlimit="10" stroke-width="1" fill="url(#linear-gradient)"/>
      <ellipse id="Ellipse_529" data-name="Ellipse 529" cx="5.766" cy="5.766" rx="5.766" ry="5.766" transform="translate(1081.938 190.097)"/>
      <path id="Path_14167" data-name="Path 14167" d="M-689.827,1382.67" transform="translate(1845.402 -1087.106)" fill="#aa0202"/>
      <ellipse id="Ellipse_530" data-name="Ellipse 530" cx="9.16" cy="9.16" rx="9.16" ry="9.16" transform="translate(1048.27 175.455)" stroke="#111" stroke-miterlimit="10" stroke-width="1" fill="url(#linear-gradient-2)"/>
      <ellipse id="Ellipse_531" data-name="Ellipse 531" cx="6.022" cy="6.022" rx="6.022" ry="6.022" transform="translate(1050.011 180.299)"/>
      <g id="Path_14168" data-name="Path 14168" transform="translate(1091.167 299.548)">
        <path id="Path_15544" data-name="Path 15544" d="M-665.991,1446.848c3.011.424,5.271-3.232,7.085-6.863a117.66,117.66,0,0,0,5.6-14.065c3.406-10.023,6.54-21.7,7.066-25.439a15.6,15.6,0,0,0-1.994-10.312,11.273,11.273,0,0,0-8.058-5.519,11.267,11.267,0,0,0-9.239,3.062,15.594,15.594,0,0,0-4.79,9.385,244.989,244.989,0,0,0-1.161,26.2,116.231,116.231,0,0,0,.851,14.965C-670.059,1442.264-669.059,1446.416-665.991,1446.848Z" transform="translate(671.487 -1384.544)" fill="#ff3400" stroke="#111" stroke-linecap="round" stroke-linejoin="round" stroke-width="2"/>
      </g>
      <g id="Path_14169" data-name="Path 14169" transform="translate(1135.662 285.297)">
        <path id="Path_15545" data-name="Path 15545" d="M-670.3,1408.877c2.022-1.167,1.922-3.921,1.612-6.191a52.1,52.1,0,0,0-1.873-7.8,88.221,88.221,0,0,0-4.941-12.876,8.3,8.3,0,0,0-11.318-3.066l-.1.06a8.321,8.321,0,0,0-3.028,11.348,105.7,105.7,0,0,0,8.1,10.931,50.961,50.961,0,0,0,5.462,5.736C-675.367,1407.9-672.645,1410.229-670.3,1408.877Z" transform="translate(691.065 -1377.842)" fill="#ff3400" stroke="#111" stroke-linecap="round" stroke-linejoin="round" stroke-width="2"/>
      </g>
      <g id="Path_14159" data-name="Path 14159" transform="translate(1115.068 290.027)">
        <path id="Path_15546" data-name="Path 15546" d="M-665.721,1429.5h0c2.639-.372,3.613-3.753,4.217-7.012a91.5,91.5,0,0,0,1.161-11.738c.387-8.2.215-17.607-.2-20.541a12.6,12.6,0,0,0-3.838-7.565,9.167,9.167,0,0,0-7.546-2.494,9.17,9.17,0,0,0-6.566,4.5,12.606,12.606,0,0,0-1.605,8.308,191.02,191.02,0,0,0,4.727,19.814,90.354,90.354,0,0,0,3.848,11.036C-670.167,1426.839-668.42,1429.882-665.721,1429.5Z" transform="translate(680.231 -1380.067)" fill="#ff3400" stroke="#111" stroke-linecap="round" stroke-linejoin="round" stroke-width="2"/>
      </g>
      <path id="Path_15442-2" data-name="Path 15442" d="M-632.668,1345.546a10.54,10.54,0,0,1-13.71,5.858,10.542,10.542,0,0,1-5.858-13.71,38.537,38.537,0,0,0,9.045,5.426A41.715,41.715,0,0,0-632.668,1345.546Z" transform="translate(617.707 1628.543) rotate(172)"/>
      <g id="Path_14172-2" data-name="Path 14172-2" transform="translate(1087.716 238.406)">
        <path id="Path_15547" data-name="Path 15547" d="M-659.493,1379.217h0c-.838,2.076-1.642,5.012-.706,7.217l.006.015.006.013c1.129,2.553,3.938,4.059,7.908,4.24a27.262,27.262,0,0,0,11.482-2.375l.009,0,.006,0a59.426,59.426,0,0,0,7.863-4.033c2.73-1.723,4.284-3.219,4.888-4.712a3.523,3.523,0,0,0-1.737-4.591,18.819,18.819,0,0,1-4.225-4,21.4,21.4,0,0,0-5.2-4.786,8.768,8.768,0,0,0-8.129-.308l-.006,0-.007,0C-653.008,1368.35-657.528,1374.354-659.493,1379.217Z" transform="translate(660.618 -1365.043)" fill="#ff3400" stroke="#0a2540" stroke-miterlimit="10" stroke-width="2"/>
      </g>
      <g id="Path_14171-2" data-name="Path 14171-2" transform="translate(1109.627 216.741)">
        <path id="Path_15548" data-name="Path 15548" d="M-659.211,1362.342h0c-5.3,5.114-11.1,13.038-11.316,18.348a18.568,18.568,0,0,0,.587,5.962l.287,1,.961.389a13.424,13.424,0,0,0,2.909.832c2.345.389,5.333-.457,8.873-2.513a49.2,49.2,0,0,0,9.052-7.006c2.135-2.065,9.122-9.226,9.356-14.805a23.8,23.8,0,0,0-.5-7.068l-.24-.9-.831-.433a13.575,13.575,0,0,0-5.666-1.282h-.013C-650.512,1354.66-656.228,1359.461-659.211,1362.342Z" transform="translate(670.553 -1354.853)" fill="red" stroke="#111" stroke-linecap="round" stroke-linejoin="round" stroke-width="2"/>
      </g>
      <path id="Path_15819" data-name="Path 15819" d="M10.936.909c3.988,1.477,5.842,4.228,4.139,6.147s-6.315,2.276-10.3.8S-1.069,3.627.631,1.71,6.946-.566,10.936.909Z" transform="translate(917.986 145.157) rotate(31)" fill="#e3e3e3" style="mix-blend-mode: multiply;isolation: isolate"/>
      <g id="Path_14589" data-name="Path 14589" transform="translate(990.038 95.135) rotate(48)">
        <path id="Path_15521" data-name="Path 15521" d="M73.217,40.306a5.388,5.388,0,0,1-2.756,3.168,21.021,21.021,0,0,1-14.993,1.365c-4.182-1.159-10.138-4.183-14.752-12.005C29.426,13.8,12.518,10.194,5.3,8.651,2.365,8.026,1.028,7.74.322,6.519A2.375,2.375,0,0,1,.12,4.58a3.936,3.936,0,0,1,2.205-2.1C6.395.4,14.723-.472,23.543.249c5.873.481,16.864,2.084,24.522,7.433A93.567,93.567,0,0,1,66.179,24.148a44.214,44.214,0,0,1,5.752,8.488C73.457,35.76,73.878,38.269,73.217,40.306Z" transform="translate(0 0)" fill="#0a2540"/>
        <path id="Path_15522" data-name="Path 15522" d="M69.067,37.524C71.053,31.411,57.459,16,44.729,7.307,32.812-1.023,8.536-1.51,1.162,2.247S23.25.684,40.419,29.629C47.836,42.2,59.994,43.212,67.368,39.455a3.236,3.236,0,0,0,1.7-1.93" transform="translate(2.128 2.125)" fill="#ff3400"/>
      </g>
      <path id="Path_15962" data-name="Path 15962" d="M284.285,1016.581l.152.088-.591.334q-.165.015-.139-.08Z" transform="translate(686.451 -742.725)" fill="#868686"/>
      <path id="Path_15963" data-name="Path 15963" d="M281.33,1019.372l.139.08a.754.754,0,0,1-.473.2C280.994,1019.5,281.176,1019.443,281.33,1019.372Z" transform="translate(688.828 -745.174)" fill="#3c3c3c"/>
      <path id="Path_15964" data-name="Path 15964" d="M273.782,1023.905c.027-.119.189-.156.355-.217C274.059,1023.873,274.059,1023.873,273.782,1023.905Z" transform="translate(695.16 -748.963)" fill="#494949"/>
      <path id="Path_15965" data-name="Path 15965" d="M269.178,1027.067l-.137-.079c.082-.057.165-.174.3-.1S269.277,1027.02,269.178,1027.067Z" transform="translate(699.32 -751.752)" fill="#9e9e9e"/>
      <g id="Mask_Group_39" data-name="Mask Group 39" clip-path="url(#clip-path)">
        <path id="Path_15443" data-name="Path 15443" d="M-642.088,1341.788a10.555,10.555,0,0,0-8.652.7,11,11,0,0,0,5.46,5.09,10.88,10.88,0,0,0,9.045-.527A9.571,9.571,0,0,0-642.088,1341.788Z" transform="translate(1590.941 -1186.434) rotate(-5)" fill="#820707"/>
      </g>
      <g id="Group_6648" data-name="Group 6648" transform="translate(1221.778 113.683) rotate(99)">
        <g id="Path_14174-2" data-name="Path 14174-2" transform="translate(11.754 0)">
          <path id="Path_15549" data-name="Path 15549" d="M.627,15.227v0c.825-1.134,2.594-2.273,6.107-3.933q.97-.457,1.924-.911C19.685,5.16,30.1.229,43.682.008A70.486,70.486,0,0,1,66.695,3.792c9.047,2.926,18.8,7.514,29.823,14.027a34.106,34.106,0,0,1,11.259,11.016,42.747,42.747,0,0,1,5.862,14.433,40.173,40.173,0,0,1,.491,13.944,27.447,27.447,0,0,1-4.678,12.06A19.987,19.987,0,0,1,96.01,77.4C84.4,79.2,74.921,76.357,66.191,68.441,58.534,61.5,51.726,50.965,43.221,36.22c-6.47-11.154-23.138-13.415-33.1-14.767-6.181-.838-9-1.221-9.9-3.336A2.9,2.9,0,0,1,.627,15.227Z" fill="#ff3400" stroke="#111" stroke-linecap="round" stroke-linejoin="round" stroke-width="2"/>
        </g>
        <g id="Path_14175-2" data-name="Path 14175-2" transform="translate(11.801 14.426)">
          <path id="Path_15550" data-name="Path 15550" d="M110.87,34.4l-.446.208c-.232.381-.478.753-.738,1.11a15.811,15.811,0,0,1-7.94,5.725c-9.979,3.321-18.386,2.267-27.261-3.419-8.212-5.261-16.434-14.265-27.038-27.084C37.994-.559,19.936-.013,9.147.313A49.267,49.267,0,0,1,2.468.277L.614,0,.108,1.806A2.749,2.749,0,0,0,.457,4.089c1.148,1.748,4,2.139,9.693,2.917,9.94,1.359,26.577,3.636,33.026,14.786,8.5,14.745,15.313,25.279,22.968,32.222,8.73,7.916,18.205,10.761,29.817,8.953A19.8,19.8,0,0,0,109.367,54.9c3.589-4.939,5.363-11.79,5-19.3Z" fill="red" stroke="#111" stroke-linecap="round" stroke-linejoin="round" stroke-width="2"/>
        </g>
        <g id="Path_14588" data-name="Path 14588" transform="translate(6.167 33.036) rotate(-7)">
          <path id="Path_15551" data-name="Path 15551" d="M.519.991h0A2.367,2.367,0,0,1,2.207.015c1.4-.147,2.42.767,4.648,2.77,5.492,4.937,18.352,16.5,40.391,14.444,9.037-.866,14.984,2.175,18.382,4.879a21.033,21.033,0,0,1,7.708,12.932,5.386,5.386,0,0,1-.944,4.091C71.132,40.865,68.855,42,65.43,42.6a44.181,44.181,0,0,1-10.246.338,93.641,93.641,0,0,1-23.972-4.975c-8.828-3.053-16.589-11-20.429-15.473C5.016,15.777.827,8.524.113,4.01A3.928,3.928,0,0,1,.519.991Z" transform="translate(0 0)" fill="#ff3400" stroke="#111" stroke-linecap="round" stroke-linejoin="round" stroke-width="2"/>
        </g>
      </g>
    </g>
    <path id="Path_15444" data-name="Path 15444" d="M1.4,11.239a7.283,7.283,0,0,1,.605-9.32,5.414,5.414,0,0,1,7.627-.641,5.6,5.6,0,0,1,.638.638s-4.107-.325-6.324,2S1.4,11.239,1.4,11.239Z" transform="matrix(0.799, 0.602, -0.602, 0.799, 971.764, 199.506)" fill="#ff3400"/>
    <path id="Path_15445" data-name="Path 15445" d="M0,4.34A7.285,7.285,0,0,1,8.372.2a5.413,5.413,0,0,1,4.369,6.282,5.5,5.5,0,0,1-.233.873s-1.773-3.719-4.9-4.474S0,4.34,0,4.34Z" transform="matrix(0.799, 0.602, -0.602, 0.799, 1003.7, 211.257)" fill="#ff3400"/>
    <path id="Path_15998" data-name="Path 15998" d="M7828.932-4219.651l15.653,8.953" transform="translate(-7017 4579.137)" fill="none" stroke="red" stroke-width="1.5"/>
    <path id="Path_16003" data-name="Path 16003" d="M7828.932-4219.651l15.653,8.953" transform="translate(8753.386 -3673.18) rotate(-179)" fill="none" stroke="red" stroke-width="1.5"/>
    <path id="Path_15999" data-name="Path 15999" d="M7826.179-4218.841l8.442,14.466" transform="translate(-7012 4579)" fill="none" stroke="red" stroke-width="1.5"/>
    <path id="Path_16002" data-name="Path 16002" d="M7826.179-4218.841l8.442,14.466" transform="matrix(-1, 0.017, -0.017, -1, 8600.705, -3945.989)" fill="none" stroke="red" stroke-width="1.5"/>
    <path id="Path_16000" data-name="Path 16000" d="M7827.636-4218.841l15.057,13.923" transform="translate(-7017.555 4575.842)" fill="none" stroke="red" stroke-width="1.5"/>
    <path id="Path_16001" data-name="Path 16001" d="M7827.636-4218.841l15.057,13.923" transform="matrix(-1, 0.017, -0.017, -1, 8604.391, -3945.344)" fill="none" stroke="red" stroke-width="1.5"/>
    <path id="Path_16004" data-name="Path 16004" d="M7020.1-4427.37c52.574-13.775,166.676-38.267,217.991-7.6,67.967,40.613,41.552,150.951,177.847,180.944s207.182-24.287,291.7-5.741,113.76,51.984,113.76,51.984" transform="translate(-6779.052 4980.7) rotate(-3)" fill="none" stroke="#101f30" stroke-width="5"/>
    <path id="Path_15997" data-name="Path 15997" d="M7857-4177.417s43.516,50.8,133.124,50.8,238.851-21.805,365.727,12.191,155.435,162.545,316.964,177.784c110.81,10.454,208.232,48.636,258.682,71.673" transform="translate(-7012 4581)" fill="none" stroke="#f8f9fb" stroke-width="5"/>
    <path id="Path_16005" data-name="Path 16005" d="M7857-4177.417s43.516,50.8,133.124,50.8,238.851-21.805,365.727,12.191,155.435,162.545,316.964,177.784c105.641,9.966,199.114,45.134,251.289,68.339" transform="translate(-7004.214 4596.417)" fill="none" stroke="#101f30" stroke-width="5"/>
    <path id="Path_15996" data-name="Path 15996" d="M7012.164-4409.275c30.982-6.869,194.953-39.716,255.417,19.2,66.958,65.242,61.482,117.419,185.423,140.785s192.727-30.73,266.888-20.571,109.718,52.828,109.718,52.828" transform="translate(-7012 4581)" fill="none" stroke="#f8f9fb" stroke-width="5"/>
    <path id="Path_16006" data-name="Path 16006" d="M7829.61-4223.892l-3.739.673-3.739.673" transform="translate(-7010.836 4613.768)" fill="none" stroke="#fff" stroke-linecap="round" stroke-width="1"/>
    <path id="Path_16010" data-name="Path 16010" d="M7829.61-4223.892l-3.739.673-3.739.673" transform="matrix(-0.978, -0.208, 0.208, -0.978, 9383.004, -2126.873)" fill="none" stroke="#fff" stroke-linecap="round" stroke-width="1"/>
    <path id="Path_16008" data-name="Path 16008" d="M7829.61-4223.892l-3.739.673-3.739.673" transform="translate(-1277.145 9039.626) rotate(-48)" fill="none" stroke="#fff" stroke-linecap="round" stroke-width="1"/>
    <path id="Path_16011" data-name="Path 16011" d="M7829.61-4223.892l-3.739.673-3.739.673" transform="matrix(-0.809, 0.588, -0.588, -0.809, 4694.795, -7648.117)" fill="none" stroke="#fff" stroke-linecap="round" stroke-width="1"/>
    <path id="Path_16007" data-name="Path 16007" d="M7826.277-4222.545l-2.073-.673-2.072-.673" transform="matrix(0.53, -0.848, 0.848, 0.53, 253.213, 9267.402)" fill="none" stroke="#fff" stroke-linecap="round" stroke-width="1"/>
    <path id="Path_16009" data-name="Path 16009" d="M7826.277-4222.545l-2.073-.673-2.072-.673" transform="matrix(-0.695, 0.719, -0.719, -0.695, 3245.236, -8189.096)" fill="none" stroke="#fff" stroke-linecap="round" stroke-width="1"/>
  </g>
</svg>