<svg xmlns="http://www.w3.org/2000/svg" width="23" height="23" viewBox="0 0 23 23">
    <g transform="translate(-459 -1149)">
        <path data-name="Контур 71605" d="M-8795.5 14203.5a1 1 0 0 1-1-1v-5.569a1 1 0 0 1 1-1 1 1 0 0 1 1 1v5.569a1 1 0 0 1-1 1z" transform="rotate(180 -4162.5 7681.234)" style="fill:#4adb98"/>
        <circle data-name="Эллипс 1998" cx="1.5" cy="1.5" r="1.5" transform="rotate(180 236 578.734)" style="fill:#4adb98"/>
        <path data-name="Эллипс 1997" d="M11.5 2a9.5 9.5 0 1 0 9.5 9.5A9.511 9.511 0 0 0 11.5 2m0-2A11.5 11.5 0 1 1 0 11.5 11.5 11.5 0 0 1 11.5 0z" transform="translate(459 1149)" style="fill:#4adb98"/>
    </g>
</svg>
