<svg width="24" height="24" viewBox="0 0 24 24" fill="none" xmlns="http://www.w3.org/2000/svg">
    <path d="M24 1.796v6.123c0 .27-.105.53-.293.721a.99.99 0 0 1-.707.3h-6a.99.99 0 0 1-.707-.3 1.031 1.031 0 0 1 0-1.443.99.99 0 0 1 .707-.299h3.586l-1.828-1.866a9.846 9.846 0 0 0-7.017-2.989h-.056a9.837 9.837 0 0 0-6.986 2.905.989.989 0 0 1-1.398-.033 1.032 1.032 0 0 1 0-1.427A11.874 11.874 0 0 1 11.76 0a11.88 11.88 0 0 1 8.417 3.59L22 5.454v-3.66c0-.27.105-.53.293-.721a.99.99 0 0 1 1.414 0c.188.191.293.45.293.722zm-4.699 17.258a9.896 9.896 0 0 1-7.046 2.905 9.9 9.9 0 0 1-7.013-2.989l-1.828-1.866H7a.99.99 0 0 0 .707-.3 1.031 1.031 0 0 0 0-1.442.99.99 0 0 0-.707-.3H1a.99.99 0 0 0-.707.3c-.188.19-.293.45-.293.721v6.123c0 .271.105.53.293.722a.99.99 0 0 0 1.414 0c.188-.191.293-.451.293-.722v-3.66l1.829 1.867A11.81 11.81 0 0 0 12.25 24h.066a11.797 11.797 0 0 0 8.384-3.486 1.031 1.031 0 0 0 0-1.427.989.989 0 0 0-1.398-.033z" fill="red"/>
</svg>
