<svg xmlns="http://www.w3.org/2000/svg" width="24.02" height="21.049" viewBox="0 0 24.02 21.049">
    <g transform="translate(9152.51 -14110.951)">
        <path data-name="Контур 71604" d="M-8795.5 14202.137a1 1 0 0 1-1-1v-4.2a1 1 0 0 1 1-1 1 1 0 0 1 1 1v4.2a1 1 0 0 1-1 1z" transform="translate(-345 -78.136)" style="fill:#ff9d28"/>
        <circle data-name="Эллипс 1996" cx="1.5" cy="1.5" r="1.5" transform="translate(-9142 14125)" style="fill:#ff9d28"/>
        <path data-name="Многоугольник 34" d="M13.5 3.951 3.493 21h20.014L13.5 3.951m0-2a1.982 1.982 0 0 1 1.725.988l10.007 17.049A2 2 0 0 1 23.507 23H3.493a2 2 0 0 1-1.725-3.012L11.775 2.939a1.982 1.982 0 0 1 1.725-.988z" transform="translate(-9154 14109)" style="fill:#ff9d28"/>
    </g>
</svg>
