<svg width="18" height="24" viewBox="0 0 18 24" fill="none" xmlns="http://www.w3.org/2000/svg">
    <g clip-path="url(#5z3dfrqpna)">
        <path d="M6.938 23.157a.457.457 0 0 1-.204-.222.44.44 0 0 1-.017-.298c.314-2.013.624-4.026.93-6.04.096-.624.194-1.247.292-1.87.037-.237.02-.261-.233-.261H1.277a.363.363 0 0 1-.207-.033.35.35 0 0 1-.152-.141.35.35 0 0 1 .06-.406c.212-.281.422-.564.634-.843L10.55 1.166l.08-.104c.115-.156.254-.253.458-.169a.371.371 0 0 1 .186.182c.037.08.043.172.017.256-.046.302-.092.603-.14.904l-.838 5.438c-.08.523-.158 1.047-.24 1.57-.043.27-.035.285.25.285h6.116a2.38 2.38 0 0 1 .335.016.355.355 0 0 1 .193.052.329.329 0 0 1 .067.516c-.26.357-.52.706-.789 1.057L7.463 22.842c-.08.123-.181.231-.3.318l-.225-.003z" stroke="red" stroke-width="2" stroke-miterlimit="10"/>
    </g>
    <defs>
        <clipPath id="5z3dfrqpna">
            <path fill="#fff" d="M0 0h18v24H0z"/>
        </clipPath>
    </defs>
</svg>
