<svg xmlns="http://www.w3.org/2000/svg" width="175" height="36" viewBox="0 0 124.854 16.148">
  <path d="M4.4.264A3.351,3.351,0,0,1,2.992,0a2.275,2.275,0,0,1-.913-.737,3.13,3.13,0,0,1-.495-1.144A6.755,6.755,0,0,1,1.43-3.388V-15.422H4.664V-3.256a1.026,1.026,0,0,0,.187.7.536.536,0,0,0,.385.2h.187A.707.707,0,0,0,5.632-2.4l.4,2.4a3.436,3.436,0,0,1-.671.187A5.209,5.209,0,0,1,4.4.264Zm8.008,0a5.37,5.37,0,0,1-2-.385A5.08,5.08,0,0,1,8.7-1.232,5.333,5.333,0,0,1,7.524-3.025a6.33,6.33,0,0,1-.44-2.431,6.33,6.33,0,0,1,.44-2.431A5.333,5.333,0,0,1,8.7-9.68a5.08,5.08,0,0,1,1.7-1.111,5.37,5.37,0,0,1,2-.385,5.286,5.286,0,0,1,1.991.385A5.107,5.107,0,0,1,16.093-9.68,5.333,5.333,0,0,1,17.27-7.887a6.33,6.33,0,0,1,.44,2.431,6.33,6.33,0,0,1-.44,2.431,5.333,5.333,0,0,1-1.177,1.793A5.107,5.107,0,0,1,14.4-.121,5.286,5.286,0,0,1,12.408.264Zm0-2.618a1.641,1.641,0,0,0,1.5-.836,4.36,4.36,0,0,0,.506-2.266A4.36,4.36,0,0,0,13.9-7.722a1.641,1.641,0,0,0-1.5-.836,1.635,1.635,0,0,0-1.507.836,4.439,4.439,0,0,0-.495,2.266A4.439,4.439,0,0,0,10.9-3.19,1.635,1.635,0,0,0,12.408-2.354ZM25.652.264A3.289,3.289,0,0,1,24.189-.1a4.623,4.623,0,0,1-1.375-1.067h-.088L22.462,0h-2.53V-15.422h3.234v3.784l-.088,1.672a5.075,5.075,0,0,1,1.375-.891,3.76,3.76,0,0,1,1.507-.319,3.93,3.93,0,0,1,1.782.4,3.947,3.947,0,0,1,1.353,1.111,5.073,5.073,0,0,1,.858,1.738,8.154,8.154,0,0,1,.3,2.277,7.57,7.57,0,0,1-.385,2.508,5.747,5.747,0,0,1-1.034,1.859A4.494,4.494,0,0,1,27.357-.132,3.9,3.9,0,0,1,25.652.264ZM24.9-2.376a1.767,1.767,0,0,0,1.43-.759,4.006,4.006,0,0,0,.594-2.453q0-2.948-1.892-2.948a2.564,2.564,0,0,0-1.87.99V-3.08a2.64,2.64,0,0,0,.88.55A2.589,2.589,0,0,0,24.9-2.376ZM35.64.264a6.366,6.366,0,0,1-2.211-.418,6.818,6.818,0,0,1-1.969-1.1l1.452-2.024a6.583,6.583,0,0,0,1.43.858,3.554,3.554,0,0,0,1.386.286,1.809,1.809,0,0,0,1.056-.242.8.8,0,0,0,.33-.682.69.69,0,0,0-.187-.473,1.908,1.908,0,0,0-.506-.385,4.984,4.984,0,0,0-.715-.319q-.4-.143-.814-.319a10.312,10.312,0,0,1-1.012-.462,4.28,4.28,0,0,1-.924-.649,3.183,3.183,0,0,1-.682-.9,2.6,2.6,0,0,1-.264-1.2,3.243,3.243,0,0,1,.3-1.386,2.965,2.965,0,0,1,.847-1.078,4.177,4.177,0,0,1,1.32-.693,5.477,5.477,0,0,1,1.716-.253,5.281,5.281,0,0,1,2.2.429,8.8,8.8,0,0,1,1.65.957L38.588-7.854a5.718,5.718,0,0,0-1.166-.682,2.916,2.916,0,0,0-1.144-.242q-1.232,0-1.232.858a.634.634,0,0,0,.176.451,1.747,1.747,0,0,0,.473.341,6.108,6.108,0,0,0,.682.3l.8.3q.528.2,1.045.451a4.327,4.327,0,0,1,.946.627,2.87,2.87,0,0,1,.693.913,2.9,2.9,0,0,1,.264,1.287,3.349,3.349,0,0,1-.286,1.386,3.051,3.051,0,0,1-.858,1.111,4.284,4.284,0,0,1-1.408.748A6.2,6.2,0,0,1,35.64.264Zm10.3,0a4.355,4.355,0,0,1-1.727-.308A3.024,3.024,0,0,1,43.043-.9a3.491,3.491,0,0,1-.66-1.331,6.675,6.675,0,0,1-.209-1.727V-8.382h-1.5v-2.4l1.672-.132.374-2.9h2.684v2.9h2.618v2.53H45.408V-4a1.9,1.9,0,0,0,.385,1.331,1.342,1.342,0,0,0,1.023.407,2.3,2.3,0,0,0,.539-.066,3.6,3.6,0,0,0,.495-.154l.506,2.354q-.44.132-1.034.264A6.444,6.444,0,0,1,45.936.264ZM50.16,0V-10.912H52.8L53.02-9h.088a4.222,4.222,0,0,1,1.43-1.65,3.11,3.11,0,0,1,1.672-.528,4.3,4.3,0,0,1,.759.055,2.319,2.319,0,0,1,.539.165L56.98-8.162a5.218,5.218,0,0,0-.572-.132,3.79,3.79,0,0,0-.616-.044,2.359,2.359,0,0,0-1.287.44,3.185,3.185,0,0,0-1.111,1.562V0Zm8.69.264a1.86,1.86,0,0,1-1.4-.583,2,2,0,0,1-.561-1.441,2.026,2.026,0,0,1,.561-1.463,1.86,1.86,0,0,1,1.4-.583,1.86,1.86,0,0,1,1.4.583,2.026,2.026,0,0,1,.561,1.463,2,2,0,0,1-.561,1.441A1.86,1.86,0,0,1,58.85.264ZM63.58,0V-10.912h3.234V0Zm1.606-12.518a1.936,1.936,0,0,1-1.342-.473,1.564,1.564,0,0,1-.528-1.221,1.531,1.531,0,0,1,.528-1.21,1.964,1.964,0,0,1,1.342-.462,1.954,1.954,0,0,1,1.353.462,1.546,1.546,0,0,1,.517,1.21,1.579,1.579,0,0,1-.517,1.221A1.926,1.926,0,0,1,65.186-12.518ZM74.338.264a5.37,5.37,0,0,1-2-.385,5.08,5.08,0,0,1-1.705-1.111,5.333,5.333,0,0,1-1.177-1.793,6.33,6.33,0,0,1-.44-2.431,6.33,6.33,0,0,1,.44-2.431A5.333,5.333,0,0,1,70.631-9.68a5.08,5.08,0,0,1,1.705-1.111,5.37,5.37,0,0,1,2-.385,5.286,5.286,0,0,1,1.991.385A5.107,5.107,0,0,1,78.023-9.68,5.333,5.333,0,0,1,79.2-7.887a6.33,6.33,0,0,1,.44,2.431,6.33,6.33,0,0,1-.44,2.431,5.333,5.333,0,0,1-1.177,1.793A5.107,5.107,0,0,1,76.329-.121,5.286,5.286,0,0,1,74.338.264Zm0-2.618a1.641,1.641,0,0,0,1.5-.836,4.36,4.36,0,0,0,.506-2.266,4.36,4.36,0,0,0-.506-2.266,1.641,1.641,0,0,0-1.5-.836,1.635,1.635,0,0,0-1.507.836,4.439,4.439,0,0,0-.5,2.266,4.439,4.439,0,0,0,.5,2.266A1.635,1.635,0,0,0,74.338-2.354Z" transform="translate(-1.43 15.884)" fill="#ff0000"/>
  <path d="M5.456.264A3.964,3.964,0,0,1,2.233-1.188a6.334,6.334,0,0,1-1.2-4.136,6.739,6.739,0,0,1,.385-2.343A5.564,5.564,0,0,1,2.442-9.438,4.533,4.533,0,0,1,3.916-10.56a4.062,4.062,0,0,1,1.76-.4,3.651,3.651,0,0,1,1.606.33,7.174,7.174,0,0,1,1.386.9L8.58-11.55v-4.114h1.826V0H8.91L8.756-1.254H8.69A6.762,6.762,0,0,1,7.227-.187,3.635,3.635,0,0,1,5.456.264Zm.4-1.518A2.877,2.877,0,0,0,7.26-1.617,5.064,5.064,0,0,0,8.58-2.728V-8.316a4.544,4.544,0,0,0-1.309-.869,3.41,3.41,0,0,0-1.287-.253,2.525,2.525,0,0,0-1.2.3,3.026,3.026,0,0,0-.979.836,4.177,4.177,0,0,0-.66,1.287A5.415,5.415,0,0,0,2.9-5.346a5.117,5.117,0,0,0,.77,3.014A2.519,2.519,0,0,0,5.852-1.254ZM18.172.264A4.811,4.811,0,0,1,16.291-.11,4.633,4.633,0,0,1,14.718-1.2a5.3,5.3,0,0,1-1.089-1.76,6.476,6.476,0,0,1-.407-2.365,6.541,6.541,0,0,1,.407-2.387,5.43,5.43,0,0,1,1.089-1.771,4.563,4.563,0,0,1,1.573-1.1,4.811,4.811,0,0,1,1.881-.374,4.811,4.811,0,0,1,1.881.374,4.563,4.563,0,0,1,1.573,1.1,5.43,5.43,0,0,1,1.089,1.771,6.541,6.541,0,0,1,.407,2.387,6.476,6.476,0,0,1-.407,2.365A5.3,5.3,0,0,1,21.626-1.2,4.633,4.633,0,0,1,20.053-.11,4.811,4.811,0,0,1,18.172.264Zm0-1.5a2.68,2.68,0,0,0,1.254-.3,2.882,2.882,0,0,0,.979-.836,3.974,3.974,0,0,0,.627-1.287,5.918,5.918,0,0,0,.22-1.672,6.034,6.034,0,0,0-.22-1.683,4.1,4.1,0,0,0-.627-1.309,2.836,2.836,0,0,0-.979-.847,2.68,2.68,0,0,0-1.254-.3,2.68,2.68,0,0,0-1.254.3,2.836,2.836,0,0,0-.979.847,4.1,4.1,0,0,0-.627,1.309,6.034,6.034,0,0,0-.22,1.683,5.918,5.918,0,0,0,.22,1.672,3.974,3.974,0,0,0,.627,1.287,2.882,2.882,0,0,0,.979.836A2.68,2.68,0,0,0,18.172-1.232Zm11.99,1.5a5.227,5.227,0,0,1-1.98-.374,4.449,4.449,0,0,1-1.6-1.089,5.122,5.122,0,0,1-1.056-1.76,6.808,6.808,0,0,1-.385-2.365,6.387,6.387,0,0,1,.418-2.387,5.378,5.378,0,0,1,1.122-1.771,4.68,4.68,0,0,1,1.639-1.1,5.252,5.252,0,0,1,1.969-.374,4,4,0,0,1,1.8.374,6.088,6.088,0,0,1,1.32.88l-.924,1.188a4.529,4.529,0,0,0-.979-.682A2.5,2.5,0,0,0,30.36-9.46a3.049,3.049,0,0,0-1.342.3,3.018,3.018,0,0,0-1.056.847,4.2,4.2,0,0,0-.693,1.309,5.3,5.3,0,0,0-.253,1.683,5.415,5.415,0,0,0,.242,1.672,4.042,4.042,0,0,0,.671,1.287,2.967,2.967,0,0,0,1.045.836,3.049,3.049,0,0,0,1.342.3,2.988,2.988,0,0,0,1.375-.319,5.559,5.559,0,0,0,1.133-.759l.792,1.21a5.727,5.727,0,0,1-1.606,1A4.8,4.8,0,0,1,30.162.264Zm8.6,0a5.756,5.756,0,0,1-2.178-.418,6.794,6.794,0,0,1-1.8-1.056l.9-1.21a7.237,7.237,0,0,0,1.441.924,3.913,3.913,0,0,0,1.705.352,2.275,2.275,0,0,0,1.584-.484,1.549,1.549,0,0,0,.528-1.188,1.216,1.216,0,0,0-.22-.726,2.188,2.188,0,0,0-.561-.539,4.109,4.109,0,0,0-.781-.407L38.5-4.84q-.572-.2-1.144-.451a4.569,4.569,0,0,1-1.023-.616,3.116,3.116,0,0,1-.737-.847A2.253,2.253,0,0,1,35.31-7.92a2.883,2.883,0,0,1,.253-1.2,2.761,2.761,0,0,1,.726-.968,3.44,3.44,0,0,1,1.155-.638,4.786,4.786,0,0,1,1.54-.231,4.8,4.8,0,0,1,1.859.352,5.784,5.784,0,0,1,1.463.858L41.448-8.6A5.747,5.747,0,0,0,40.3-9.284a3.16,3.16,0,0,0-1.3-.264,2.059,2.059,0,0,0-1.485.462,1.461,1.461,0,0,0-.473,1.078,1.081,1.081,0,0,0,.2.649,1.876,1.876,0,0,0,.528.484,4.3,4.3,0,0,0,.759.374l.891.341q.572.22,1.155.462a4.428,4.428,0,0,1,1.045.6,2.974,2.974,0,0,1,.759.891,2.565,2.565,0,0,1,.3,1.276,3.011,3.011,0,0,1-.253,1.232,2.933,2.933,0,0,1-.748,1.012,3.576,3.576,0,0,1-1.232.693A5.172,5.172,0,0,1,38.764.264Z" transform="translate(82.174 15.884)" fill="#0E1117"/>
</svg>
