<svg xmlns="http://www.w3.org/2000/svg" width="192" height="36" viewBox="0 0 192 36">
  <path d="M6.6.4A5.026,5.026,0,0,1,4.488,0a3.412,3.412,0,0,1-1.37-1.105,4.7,4.7,0,0,1-.743-1.716,10.133,10.133,0,0,1-.231-2.261V-23.133H7V-4.884a1.538,1.538,0,0,0,.28,1.056.8.8,0,0,0,.577.3h.281A1.061,1.061,0,0,0,8.448-3.6L9.042,0A5.154,5.154,0,0,1,8.036.281,7.814,7.814,0,0,1,6.6.4ZM18.612.4a8.055,8.055,0,0,1-3-.578,7.62,7.62,0,0,1-2.557-1.667,8,8,0,0,1-1.766-2.689,9.5,9.5,0,0,1-.66-3.647,9.5,9.5,0,0,1,.66-3.646,8,8,0,0,1,1.766-2.69,7.62,7.62,0,0,1,2.557-1.667,8.055,8.055,0,0,1,3-.577,7.929,7.929,0,0,1,2.986.577,7.661,7.661,0,0,1,2.541,1.667,8,8,0,0,1,1.766,2.69,9.5,9.5,0,0,1,.66,3.646,9.5,9.5,0,0,1-.66,3.647,8,8,0,0,1-1.766,2.689A7.661,7.661,0,0,1,21.6-.182,7.929,7.929,0,0,1,18.612.4Zm0-3.927a2.462,2.462,0,0,0,2.244-1.254,6.54,6.54,0,0,0,.759-3.4,6.54,6.54,0,0,0-.759-3.4,2.462,2.462,0,0,0-2.244-1.254,2.452,2.452,0,0,0-2.26,1.254,6.658,6.658,0,0,0-.743,3.4,6.658,6.658,0,0,0,.743,3.4A2.452,2.452,0,0,0,18.612-3.531ZM38.478.4a4.934,4.934,0,0,1-2.194-.545,6.935,6.935,0,0,1-2.062-1.6h-.132L33.693,0H29.9V-23.133h4.851v5.676l-.132,2.508a7.613,7.613,0,0,1,2.063-1.337,5.639,5.639,0,0,1,2.261-.478,5.894,5.894,0,0,1,2.673.594,5.921,5.921,0,0,1,2.03,1.666A7.61,7.61,0,0,1,44.93-11.9a12.231,12.231,0,0,1,.445,3.416A11.355,11.355,0,0,1,44.8-4.719a8.621,8.621,0,0,1-1.551,2.789A6.741,6.741,0,0,1,41.035-.2,5.845,5.845,0,0,1,38.478.4Zm-1.122-3.96A2.65,2.65,0,0,0,39.5-4.7a6.009,6.009,0,0,0,.891-3.679q0-4.422-2.838-4.422a3.846,3.846,0,0,0-2.805,1.485v6.7a3.959,3.959,0,0,0,1.32.825A3.883,3.883,0,0,0,37.356-3.564ZM53.46.4a9.549,9.549,0,0,1-3.317-.627,10.227,10.227,0,0,1-2.953-1.65l2.178-3.036A9.875,9.875,0,0,0,51.513-3.63a5.331,5.331,0,0,0,2.079.429,2.714,2.714,0,0,0,1.584-.363,1.2,1.2,0,0,0,.495-1.023,1.036,1.036,0,0,0-.28-.709,2.863,2.863,0,0,0-.759-.577,7.476,7.476,0,0,0-1.072-.479q-.594-.214-1.221-.478a15.468,15.468,0,0,1-1.518-.693A6.42,6.42,0,0,1,49.434-8.5a4.775,4.775,0,0,1-1.023-1.353,3.9,3.9,0,0,1-.4-1.8,4.865,4.865,0,0,1,.445-2.079,4.448,4.448,0,0,1,1.271-1.617,6.266,6.266,0,0,1,1.98-1.039,8.216,8.216,0,0,1,2.574-.379,7.921,7.921,0,0,1,3.3.643,13.2,13.2,0,0,1,2.475,1.436l-2.178,2.9A8.577,8.577,0,0,0,56.133-12.8a4.374,4.374,0,0,0-1.716-.363q-1.848,0-1.848,1.287a.952.952,0,0,0,.264.676,2.621,2.621,0,0,0,.71.512,9.162,9.162,0,0,0,1.023.445l1.2.446q.792.3,1.567.677a6.491,6.491,0,0,1,1.419.941A4.3,4.3,0,0,1,59.8-6.815a4.349,4.349,0,0,1,.4,1.931,5.024,5.024,0,0,1-.429,2.079,4.577,4.577,0,0,1-1.287,1.666A6.426,6.426,0,0,1,56.364-.016,9.3,9.3,0,0,1,53.46.4ZM68.9.4a6.532,6.532,0,0,1-2.59-.462,4.536,4.536,0,0,1-1.749-1.287,5.237,5.237,0,0,1-.99-2,10.012,10.012,0,0,1-.313-2.59v-6.633H61.017v-3.6l2.508-.2.561-4.356h4.026v4.356h3.927v3.8H68.112v6.567a2.849,2.849,0,0,0,.577,2,2.013,2.013,0,0,0,1.535.61,3.457,3.457,0,0,0,.809-.1,5.393,5.393,0,0,0,.743-.231L72.534-.2q-.66.2-1.551.4A9.667,9.667,0,0,1,68.9.4ZM75.24,0V-16.368H79.2l.33,2.871h.132a6.333,6.333,0,0,1,2.145-2.475,4.665,4.665,0,0,1,2.508-.792,6.444,6.444,0,0,1,1.138.082,3.479,3.479,0,0,1,.809.248l-.792,4.191a7.827,7.827,0,0,0-.858-.2,5.686,5.686,0,0,0-.924-.066,3.539,3.539,0,0,0-1.931.66A4.777,4.777,0,0,0,80.091-9.5V0ZM88.275.4a2.789,2.789,0,0,1-2.1-.875,3,3,0,0,1-.841-2.162,3.039,3.039,0,0,1,.841-2.195,2.789,2.789,0,0,1,2.1-.874,2.789,2.789,0,0,1,2.1.874,3.039,3.039,0,0,1,.841,2.195A3,3,0,0,1,90.37-.479,2.789,2.789,0,0,1,88.275.4Zm7.1-.4V-16.368h4.851V0Zm2.409-18.777a2.9,2.9,0,0,1-2.013-.71,2.346,2.346,0,0,1-.792-1.831,2.3,2.3,0,0,1,.792-1.815,2.946,2.946,0,0,1,2.013-.693,2.931,2.931,0,0,1,2.03.693,2.318,2.318,0,0,1,.775,1.815,2.369,2.369,0,0,1-.775,1.831A2.889,2.889,0,0,1,97.779-18.777ZM111.507.4a8.055,8.055,0,0,1-3-.578,7.62,7.62,0,0,1-2.557-1.667,8,8,0,0,1-1.766-2.689,9.5,9.5,0,0,1-.66-3.647,9.5,9.5,0,0,1,.66-3.646,8,8,0,0,1,1.766-2.69,7.62,7.62,0,0,1,2.557-1.667,8.055,8.055,0,0,1,3-.577,7.929,7.929,0,0,1,2.986.577,7.661,7.661,0,0,1,2.541,1.667,8,8,0,0,1,1.766,2.69,9.5,9.5,0,0,1,.66,3.646,9.5,9.5,0,0,1-.66,3.647,8,8,0,0,1-1.766,2.689,7.661,7.661,0,0,1-2.541,1.667A7.929,7.929,0,0,1,111.507.4Zm0-3.927a2.462,2.462,0,0,0,2.244-1.254,6.54,6.54,0,0,0,.759-3.4,6.54,6.54,0,0,0-.759-3.4,2.462,2.462,0,0,0-2.244-1.254,2.452,2.452,0,0,0-2.261,1.254,6.658,6.658,0,0,0-.743,3.4,6.658,6.658,0,0,0,.743,3.4A2.452,2.452,0,0,0,111.507-3.531Z" transform="translate(-2.145 29.826)" fill="#ff0000"/>
  <text x="121" y="30" font-family="'Source Sans 3', 'Source Sans Pro', sans-serif" font-size="30" font-weight="400" fill="#0E1117">docs</text>
</svg>
